<?xml version="1.0" encoding="utf-8"?><svg xmlns="http://www.w3.org/2000/svg" xmlns:xlink="http://www.w3.org/1999/xlink"><symbol viewBox="0 0 16 16" id="a-left-sm" xmlns="http://www.w3.org/2000/svg"><path fill-rule="evenodd" clip-rule="evenodd" d="M2.559 7.417h12.858v1.33H2.56v-1.33z"/><path fill-rule="evenodd" clip-rule="evenodd" d="m9.012 14.145-6.07-6.072L9.012 2l-.94-.94L1.53 7.601a.664.664 0 0 0 0 .94l6.54 6.543.941-.94z"/></symbol><symbol viewBox="0 0 22 22" id="bag" xmlns="http://www.w3.org/2000/svg"><path fill-rule="evenodd" clip-rule="evenodd" d="M2.864 7.39a.259.259 0 0 0-.064.177v7.516c0 2.432 1.818 4.302 3.936 4.302h7.576c2.118 0 3.935-1.87 3.935-4.302V7.567a.26.26 0 0 0-.063-.177c-.034-.036-.064-.043-.084-.043H2.947c-.02 0-.05.007-.083.043zM1.2 7.567c0-.948.728-1.82 1.747-1.82H18.1c1.02 0 1.747.872 1.747 1.82v7.516c0 3.202-2.423 5.902-5.535 5.902H6.736c-3.112 0-5.536-2.7-5.536-5.902V7.567z"/><path fill-rule="evenodd" clip-rule="evenodd" d="M5.462 3.894c0-1.574 1.403-2.694 2.93-2.694h4.263c1.528 0 2.93 1.12 2.93 2.694v6.482h-1.6V3.894c0-.519-.504-1.094-1.33-1.094H8.393c-.827 0-1.331.575-1.331 1.094v6.482h-1.6V3.894z"/><path fill-rule="evenodd" clip-rule="evenodd" d="M2.863 7.39a.259.259 0 0 0-.064.176v7.516c0 2.433 1.818 4.302 3.936 4.302h7.576c2.118 0 3.936-1.87 3.936-4.302V7.566a.26.26 0 0 0-.064-.177c-.034-.036-.064-.043-.084-.043H2.946c-.02 0-.05.007-.083.043zM1.2 7.565c0-.947.728-1.82 1.747-1.82H18.1c1.02 0 1.747.873 1.747 1.82v7.516c0 3.202-2.423 5.902-5.535 5.902H6.735c-3.112 0-5.536-2.7-5.536-5.902V7.566z"/></symbol><symbol viewBox="0 0 22 22" id="burger" xmlns="http://www.w3.org/2000/svg"><path fill-rule="evenodd" clip-rule="evenodd" d="M21 4.774H1v-1.7h20v1.7zm-6 6.7H1v-1.7h14v1.7zm6 6.7H1v-1.7h20v1.7z"/></symbol><symbol viewBox="0 0 20 20" id="cash" xmlns="http://www.w3.org/2000/svg"><path fill-rule="evenodd" clip-rule="evenodd" d="M12.861 9.212c0-.987.8-1.786 1.787-1.786h2.93a.625.625 0 1 1 0 1.25h-2.93a.536.536 0 0 0-.537.536v.951c0 .297.24.537.537.537h2.93a.625.625 0 1 1 0 1.25h-2.93c-.987 0-1.787-.8-1.787-1.787v-.95z"/><path fill-rule="evenodd" clip-rule="evenodd" d="M4.483 4.582c-.56 0-1.012.453-1.012 1.012v8.184c0 .56.452 1.012 1.012 1.012H15.94a1.01 1.01 0 0 0 1.012-1.011V5.593c0-.56-.453-1.012-1.012-1.012H4.483zM2.22 5.594a2.261 2.261 0 0 1 2.262-2.262H15.94a2.261 2.261 0 0 1 2.262 2.262v8.184a2.261 2.261 0 0 1-2.262 2.262H4.483a2.261 2.261 0 0 1-2.263-2.26V5.593z"/></symbol><symbol viewBox="0 0 20 20" id="clock" xmlns="http://www.w3.org/2000/svg"><path fill-rule="evenodd" clip-rule="evenodd" d="M10.27 5.782v4.23l3.345 2.039-.694 1.139-3.664-2.235a.667.667 0 0 1-.32-.569V5.782h1.333z"/><path fill-rule="evenodd" clip-rule="evenodd" d="M10.285 17.24a6.955 6.955 0 1 0 0-13.91 6.955 6.955 0 0 0 0 13.91zm0 1.33a8.285 8.285 0 1 0 0-16.57 8.285 8.285 0 0 0 0 16.57z"/></symbol><symbol viewBox="0 0 22 22" id="close" xmlns="http://www.w3.org/2000/svg"><g clip-path="url(#afa)" fill-rule="evenodd" clip-rule="evenodd"><path d="M21.05 2 2 21.051l-1.05-1.05L20 .95 21.05 2z"/><path d="M2 .95 21.052 20l-1.05 1.05L.95 2 2 .95z"/></g><defs><clipPath id="afa"><path d="M0 0h22v22H0z"/></clipPath></defs></symbol><symbol viewBox="0 0 20 20" id="comment" xmlns="http://www.w3.org/2000/svg"><path fill-rule="evenodd" clip-rule="evenodd" d="M1.556 4.134a1.47 1.47 0 0 1 1.47-1.469h12.839c.81 0 1.469.658 1.469 1.47v10.431a1.47 1.47 0 0 1-1.47 1.47H12.52v2.152a.667.667 0 0 1-1.05.545l-3.84-2.698H3.025a1.47 1.47 0 0 1-1.469-1.469V4.134zm1.47-.136a.136.136 0 0 0-.137.136v10.432c0 .075.062.136.136.136H7.84c.137 0 .271.042.383.121l2.963 2.082v-1.536c0-.368.298-.667.666-.667h4.013a.136.136 0 0 0 .136-.136V4.134a.136.136 0 0 0-.136-.136H3.025z"/><path fill-rule="evenodd" clip-rule="evenodd" d="M4.765 10.688h7.753v1.333H4.765v-1.334zm0-4.012h9.358v1.333H4.765V6.676z"/></symbol><symbol viewBox="0 0 14 14" id="comment-sm" xmlns="http://www.w3.org/2000/svg"><g clip-path="url(#aga)" fill-rule="evenodd" clip-rule="evenodd"><path d="M.5 1.622C.5.986 1.016.47 1.651.47h10.42c.635 0 1.15.515 1.15 1.15v8.467a1.15 1.15 0 0 1-1.15 1.15H9.315v1.789a.5.5 0 0 1-.788.409L5.4 11.239H1.651A1.151 1.151 0 0 1 .5 10.088V1.622zm1.151-.151a.151.151 0 0 0-.151.15v8.467c0 .083.068.15.151.15h3.907a.5.5 0 0 1 .288.092l2.469 1.734V10.74a.5.5 0 0 1 .5-.5h3.256a.151.151 0 0 0 .15-.151V1.622a.151.151 0 0 0-.15-.151H1.65z"/><path d="M3.104 6.983h6.21v1h-6.21v-1zm0-3.257h7.512v1H3.104v-1z"/></g><defs><clipPath id="aga"><path d="M0 0h14v14H0z"/></clipPath></defs></symbol><symbol viewBox="0 0 16 17" id="copy" xmlns="http://www.w3.org/2000/svg"><path fill-rule="evenodd" clip-rule="evenodd" d="M3.105 5.696a.832.832 0 0 0-.832.832v6.609c0 .46.372.832.832.832h6.608c.46 0 .833-.372.833-.832V6.528a.832.832 0 0 0-.833-.832H3.105zM1 6.528c0-1.163.942-2.105 2.105-2.105h6.608c1.163 0 2.105.942 2.105 2.105v6.609a2.105 2.105 0 0 1-2.105 2.104H3.105A2.105 2.105 0 0 1 1 13.137V6.528z"/><path fill-rule="evenodd" clip-rule="evenodd" d="M6.182 2.514a.727.727 0 0 0-.728.728V5.06a.636.636 0 0 1-1.272 0V3.242a2 2 0 0 1 2-2H13a2 2 0 0 1 2 2v6.818a2 2 0 0 1-2 2h-1.818a.636.636 0 0 1 0-1.273H13a.727.727 0 0 0 .727-.727V3.242A.727.727 0 0 0 13 2.514H6.182z"/></symbol><symbol viewBox="0 0 20 20" id="delivery" xmlns="http://www.w3.org/2000/svg"><path fill-rule="evenodd" clip-rule="evenodd" d="M12.44 10.578h3.313v1.334h-3.312v-1.334zm-7.915 0h3.312v1.334H4.525v-1.334zm-.12-5.869A2.646 2.646 0 0 1 6.98 2.665h6.397c1.253 0 2.333.878 2.59 2.104l.664 3.176a.667.667 0 1 1-1.305.273l-.664-3.176a1.314 1.314 0 0 0-1.285-1.044H6.98c-.61 0-1.14.42-1.278 1.014L4.95 8.233a.667.667 0 0 1-1.298-.303l.753-3.221z"/><path fill-rule="evenodd" clip-rule="evenodd" d="M1.556 10.455a3.042 3.042 0 0 1 3.042-3.042H15.68a3.042 3.042 0 0 1 3.042 3.042v4.552c0 .914-.742 1.656-1.656 1.656h-1.782a1.855 1.855 0 0 1-1.854-1.854v-.125H6.848v.125c0 1.024-.83 1.854-1.854 1.854H3.212a1.657 1.657 0 0 1-1.656-1.656v-4.552zm3.042-1.709c-.944 0-1.709.765-1.709 1.709v4.552c0 .178.145.323.323.323h1.782c.287 0 .52-.234.52-.521v-.792c0-.368.299-.666.667-.666h7.917c.368 0 .666.298.666.666v.792c0 .287.234.52.521.52h1.782a.323.323 0 0 0 .323-.322v-4.552c0-.944-.765-1.709-1.709-1.709H4.598z"/></symbol><symbol viewBox="0 0 16 16" id="down" xmlns="http://www.w3.org/2000/svg"><path fill-rule="evenodd" clip-rule="evenodd" d="m1 4.151 7 7 7-7 .85.849-7.425 7.424a.6.6 0 0 1-.848 0L.152 5l.849-.849z"/></symbol><symbol viewBox="0 0 16 16" id="edit" xmlns="http://www.w3.org/2000/svg"><g clip-path="url(#ala)" fill-rule="evenodd" clip-rule="evenodd"><path d="M9.055 3.284a.571.571 0 0 1 .808 0l2.695 2.695a.572.572 0 0 1-.808.808L9.055 4.092a.571.571 0 0 1 0-.808z"/><path d="m11.44 1.62-9.82 9.82-.001.001a.162.162 0 0 0-.045.087l.371 2.354 2.234.26a.162.162 0 0 0 .095-.046l9.82-9.821a.165.165 0 0 0 0-.233L11.673 1.62a.165.165 0 0 0-.234 0zm1.04-.808a1.307 1.307 0 0 0-1.849 0l-9.818 9.82c0-.001 0 0 0 0-.247.245-.384.58-.384.925 0 .03.002.06.007.089l.448 2.842c.04.254.244.45.498.48l2.71.315a1.306 1.306 0 0 0 .991-.38l9.819-9.82a1.307 1.307 0 0 0 0-1.85L12.481.814zM8.46 13.763h6.539v1.143h-6.54v-1.143z"/></g><defs><clipPath id="ala"><path d="M0 0h16v16H0z"/></clipPath></defs></symbol><symbol viewBox="0 0 16 16" id="filter" xmlns="http://www.w3.org/2000/svg"><path fill-rule="evenodd" clip-rule="evenodd" d="M.4 11.123h8.977v1.2H.4v-1.2zm4.487-8.912a.178.178 0 0 0-.178.178v3.11c0 .099.08.178.178.178h1.555c.098 0 .178-.08.178-.177V2.389a.178.178 0 0 0-.178-.178H4.887zm-1.378.178c0-.76.617-1.378 1.378-1.378h1.555c.761 0 1.378.617 1.378 1.378v3.11c0 .761-.617 1.378-1.378 1.378H4.887c-.76 0-1.378-.617-1.378-1.377V2.389z"/><path fill-rule="evenodd" clip-rule="evenodd" d="M.4 3.344h4.31v1.2H.4v-1.2zm6.223-.001H15.6v1.2H6.623v-1.2zm2.93 6.644a.178.178 0 0 0-.178.177v3.111c0 .098.08.178.178.178h1.555c.098 0 .178-.08.178-.178v-3.11a.178.178 0 0 0-.178-.178H9.553zm-1.378.177c0-.76.617-1.377 1.378-1.377h1.555c.761 0 1.378.617 1.378 1.377v3.111c0 .76-.617 1.378-1.378 1.378H9.553c-.76 0-1.378-.617-1.378-1.378v-3.11z"/><path fill-rule="evenodd" clip-rule="evenodd" d="M11.289 11.123h4.31v1.2h-4.31v-1.2z"/></symbol><symbol viewBox="0 0 22 22" id="heart" xmlns="http://www.w3.org/2000/svg"><path fill-rule="evenodd" clip-rule="evenodd" d="M1.823 11.11a.791.791 0 0 1-.007-.013c0-.002-.002-.003-.002-.003v-.001C1.28 10.16 1 9.093 1 8.003 1 4.71 3.547 2 6.714 2 8.378 2 9.93 2.758 11 4.033 12.07 2.758 13.622 2 15.287 2 18.453 2 21 4.709 21 8.003a6.227 6.227 0 0 1-.826 3.11c-1.151 1.98-3.267 4.118-5.1 5.767a55.903 55.903 0 0 1-3.57 2.955.816.816 0 0 1-.521.165.818.818 0 0 1-.486-.165 55.906 55.906 0 0 1-3.57-2.955c-1.834-1.65-3.952-3.79-5.104-5.77zm1.45-.872-.001-.003-.008-.013a4.446 4.446 0 0 1-.586-2.219c0-2.37 1.826-4.27 4.036-4.27 1.473 0 2.834.848 3.546 2.23a.835.835 0 0 0 .74.458.835.835 0 0 0 .74-.459c.713-1.381 2.074-2.229 3.547-2.229 2.21 0 4.036 1.9 4.036 4.27 0 .787-.203 1.554-.587 2.22v.001l-.003.005-.001.001-.001.002c-.917 1.571-2.598 3.339-4.222 4.844A57.858 57.858 0 0 1 11 18.06a57.72 57.72 0 0 1-3.509-2.986c-1.621-1.502-3.3-3.267-4.217-4.837z"/></symbol><symbol viewBox="0 0 22 22" id="heart-fill" xmlns="http://www.w3.org/2000/svg"><path fill-rule="evenodd" clip-rule="evenodd" d="M1.823 11.11a.791.791 0 0 1-.007-.013c0-.002-.002-.003-.002-.003v-.001C1.28 10.16 1 9.093 1 8.003 1 4.71 3.547 2 6.714 2 8.378 2 9.93 2.758 11 4.033 12.07 2.758 13.622 2 15.287 2 18.453 2 21 4.709 21 8.003a6.227 6.227 0 0 1-.826 3.11c-1.151 1.98-3.267 4.118-5.1 5.767a55.903 55.903 0 0 1-3.57 2.955.816.816 0 0 1-.521.165.818.818 0 0 1-.486-.165 55.906 55.906 0 0 1-3.57-2.955c-1.834-1.65-3.952-3.79-5.104-5.77z"/></symbol><symbol viewBox="0 0 24 24" id="info" xmlns="http://www.w3.org/2000/svg"><path fill-rule="evenodd" clip-rule="evenodd" d="M21.3 12A9.3 9.3 0 0 0 12 2.7 9.3 9.3 0 0 0 2.7 12a9.3 9.3 0 0 0 9.3 9.3 9.3 9.3 0 0 0 9.3-9.3zm1.2 0c0-5.8-4.7-10.5-10.5-10.5S1.5 6.2 1.5 12 6.2 22.5 12 22.5 22.5 17.8 22.5 12z"/><path fill-rule="evenodd" clip-rule="evenodd" d="M11.4 17.352v-6.2h1.2v6.2h-1.2z"/><circle cx="12" cy="8" r=".85"/></symbol><symbol viewBox="0 0 16 16" id="link" xmlns="http://www.w3.org/2000/svg"><path fill-rule="evenodd" clip-rule="evenodd" d="m14.838 2.948-12.31 12.31-.943-.942 12.31-12.31.943.942z"/><path fill-rule="evenodd" clip-rule="evenodd" d="M1.86 1.86h12.457c.367 0 .666.298.666.666V14.98H13.65V3.191H1.86V1.86z"/></symbol><symbol viewBox="0 0 59 86" id="logo" xmlns="http://www.w3.org/2000/svg"><path fill-rule="evenodd" clip-rule="evenodd" d="M27.17.15c8.594-.936 17.847 2.53 23.116 9.805 2.497 3.565 4.547 7.483 5.822 11.687 2.57 8.066 3.038 16.462 2.858 24.903-.096 7.846-1.403 15.758-4.505 22.955-4.759 10.465-12.79 15.857-23.913 16.496-7.957.132-15.86-2.674-21.215-8.903C2.8 69.489.197 56.943.091 47.018c-.233-4.545.021-9.1.319-13.646.595-7.527 2.91-14.999 6.98-21.293C11.935 5.409 19.361 1.074 27.17.149zm.425 4.071c-6.778.826-13.13 4.71-17.04 10.51-3.91 6.107-5.96 13.623-6.363 20.908-.361 6.053-.446 12.15.372 18.168 1.062 6.691 2.443 13.294 6.48 18.774 4.695 6.394 11.781 9.508 19.494 9.32 9.54-.648 16.03-5.27 20.258-14.074 1.551-3.488 2.56-7.208 3.261-10.96 1.222-6.075 1.116-12.314.925-18.488-.584-9.287-2.422-19.114-8.34-26.454-4.568-5.668-12.015-8.463-19.047-7.704zm1.423 4.842a186.252 186.252 0 0 1-8.052 19.39c-.606 1.277-1.296 2.553-2.326 3.51-.606.584-1.445.727-2.231.859l-.096.616c3.272-.01 6.544-.01 9.816 0 0-.154 0-.473-.01-.627-.904-.176-1.945-.33-2.497-1.189.18-2.288 1.179-4.412 2.008-6.514 2.613.01 5.226-.022 7.84.143a191.766 191.766 0 0 1 1.657 4.743c.255.704.287 1.617-.298 2.157-.52.517-1.296.352-1.954.407-.032.286-.053.572-.085.87 3.303-.012 6.597-.012 9.9 0a20.097 20.097 0 0 1-.148-.782 4.339 4.339 0 0 1-3.325-2.355c-3.633-6.8-6.512-13.987-9.221-21.228a2.998 2.998 0 0 0-.319-.572c-.425-.154-.563.253-.659.572zm-2.857 14.471c2.252-.01 4.504.055 6.756-.044-1.147-2.993-2.23-6.02-3.452-8.99-1.03 3.037-2.22 6.019-3.304 9.034zM11.437 37.653c-2.242 1.904-3.208 5.601-1.487 8.176 1.678 2.322 4.323 3.5 6.64 4.952 1.582.925 3.314 1.838 4.312 3.489.797 1.353.723 3.268-.36 4.423-1.01 1.024-2.455 1.552-3.857 1.53a8.782 8.782 0 0 1-4.696-1.805c-.945-.77-1.434-1.925-2.029-2.97-.36.968-.584 1.969-.786 2.992.84.903 1.955 1.486 3.028 2.036 2.645 1.2 5.821 1.728 8.53.44 1.636-.737 2.773-2.288 3.474-3.94.733-1.782.34-3.895-.67-5.48-1.125-1.705-2.846-2.872-4.588-3.818-1.923-.968-3.814-2.058-5.524-3.411-.935-.76-1.721-1.904-1.636-3.18.223-1.673 1.572-3.115 3.197-3.39 1.562-.286 3.304.088 4.526 1.177.7.606 1.009 1.52 1.179 2.41.53-.715 1.179-1.364 1.55-2.178-1.189-1.332-2.708-2.41-4.44-2.774-2.167-.429-4.6-.143-6.363 1.321zm13.3 6.669-.042.671c.828.077 1.753.022 2.443.583.52.55.52 1.387.584 2.113.022 6.13-.02 12.27.032 18.41.01 1.167-.138 2.531-1.051 3.335-.617.462-1.435.407-2.168.407v.682h9.466c0-.286.01-.56.021-.836-.914-.011-1.965-.066-2.645-.781-.383-.639-.436-1.42-.51-2.146-.021-2.993 0-5.998-.01-8.99 3.24-.023 6.469.043 9.709.043.021.87.032 1.75.064 2.62a13.315 13.315 0 0 0 0 1.595c-.064 1.662 0 3.334-.032 4.996-.01.77-.202 1.585-.701 2.179-.627.616-1.551.561-2.348.649-.01.165-.043.506-.053.671 3.144.011 6.3-.01 9.454 0-.01-.209-.02-.616-.031-.814-.85-.011-1.796-.055-2.465-.66-.574-.672-.69-1.618-.69-2.487v-7.274c-.192-3.709-.032-7.417-.107-11.126 0-1.023.234-2.223 1.116-2.828.616-.451 1.423-.286 2.124-.308.011-.154.043-.462.064-.616-3.134.01-6.278-.011-9.412.01 0 .155-.01.463-.01.617.892 0 1.996-.11 2.623.693.425.793.404 1.75.415 2.641-.022 2.465.02 4.92.02 7.384h-9.73c0-2.685.01-5.38 0-8.066-.032-.77.17-1.574.68-2.157.669-.65 1.636-.473 2.464-.484 0-.187.011-.55.011-.737-3.091.033-6.193.01-9.285.01z"/></symbol><symbol viewBox="0 0 16 17" id="minus-circle" xmlns="http://www.w3.org/2000/svg"><g clip-path="url(#asa)" fill-rule="evenodd" clip-rule="evenodd"><path d="M3.4 7.642h9.2v1.2H3.4v-1.2z"/><path d="M8 15.042a6.8 6.8 0 1 0 0-13.6 6.8 6.8 0 0 0 0 13.6zm0 1.2a8 8 0 1 0 0-16 8 8 0 0 0 0 16z"/></g><defs><clipPath id="asa"><path transform="translate(0 .242)" d="M0 0h16v16H0z"/></clipPath></defs></symbol><symbol viewBox="0 0 18 18" id="more" xmlns="http://www.w3.org/2000/svg"><circle cx="9" cy="3" r="1" transform="rotate(90 9 3)"/><circle cx="9" cy="9" r="1" transform="rotate(90 9 9)"/><circle cx="9" cy="15" r="1" transform="rotate(90 9 15)"/></symbol><symbol viewBox="0 0 16 16" id="plus" xmlns="http://www.w3.org/2000/svg"><path fill-rule="evenodd" clip-rule="evenodd" d="M8 1.4a.6.6 0 0 1 .6.6v12a.6.6 0 1 1-1.2 0V2a.6.6 0 0 1 .6-.6z"/><path fill-rule="evenodd" clip-rule="evenodd" d="M1.4 8a.6.6 0 0 1 .6-.6h12a.6.6 0 1 1 0 1.2H2a.6.6 0 0 1-.6-.6z"/></symbol><symbol viewBox="0 0 16 17" id="plus-circle" xmlns="http://www.w3.org/2000/svg"><g clip-path="url(#aua)" fill-rule="evenodd" clip-rule="evenodd"><path d="M8.6 3.642v9.2H7.4v-9.2h1.2z"/><path d="M3.4 7.642h9.2v1.2H3.4v-1.2z"/><path d="M8 15.042a6.8 6.8 0 1 0 0-13.6 6.8 6.8 0 0 0 0 13.6zm0 1.2a8 8 0 1 0 0-16 8 8 0 0 0 0 16z"/></g><defs><clipPath id="aua"><path transform="translate(0 .242)" d="M0 0h16v16H0z"/></clipPath></defs></symbol><symbol viewBox="0 0 16 16" id="right" xmlns="http://www.w3.org/2000/svg"><path fill-rule="evenodd" clip-rule="evenodd" d="M4.576 15.424a.6.6 0 0 1 0-.848L11.152 8 4.576 1.424a.6.6 0 1 1 .849-.848l7 7a.6.6 0 0 1 0 .848l-7 7a.6.6 0 0 1-.849 0z"/></symbol><symbol viewBox="0 0 22 22" id="search" xmlns="http://www.w3.org/2000/svg"><path fill-rule="evenodd" clip-rule="evenodd" d="M14.904 4.835A7.12 7.12 0 1 0 4.835 14.904 7.12 7.12 0 0 0 14.904 4.835zm-11.13-1.06A8.62 8.62 0 0 1 16.473 15.41L21.06 20 20 21.06l-4.589-4.588A8.62 8.62 0 0 1 3.775 3.775z"/></symbol><symbol viewBox="0 0 16 16" id="sorting" xmlns="http://www.w3.org/2000/svg"><path fill-rule="evenodd" clip-rule="evenodd" d="M3.147 1.576a.6.6 0 0 1 .849 0L6.99 4.57l-.848.849L3.57 2.848 1 5.42l-.85-.85 2.996-2.995z"/><path fill-rule="evenodd" clip-rule="evenodd" d="M3.572 1.4a.6.6 0 0 1 .6.6v12.6h-1.2V2a.6.6 0 0 1 .6-.6zm6 9.18 2.572 2.57 2.571-2.57.848.848-2.995 2.995a.6.6 0 0 1-.849 0l-2.995-2.995.848-.849z"/><path fill-rule="evenodd" clip-rule="evenodd" d="M12.742 1.4V14a.6.6 0 1 1-1.2 0V1.4h1.2z"/></symbol><symbol viewBox="0 0 20 20" id="tg" xmlns="http://www.w3.org/2000/svg"><path d="m8.087 12.474-.294 4.343c.42 0 .603-.19.822-.417l1.972-1.98 4.088 3.143c.75.439 1.278.208 1.48-.724l2.683-13.2c.238-1.164-.4-1.62-1.13-1.334L1.936 8.645C.86 9.083.876 9.713 1.754 9.999l4.032 1.316 9.365-6.153c.441-.306.842-.136.512.17l-7.576 7.142z"/></symbol><symbol viewBox="0 0 16 16" id="trash" xmlns="http://www.w3.org/2000/svg"><path fill-rule="evenodd" clip-rule="evenodd" d="M2.064 3.276h12.343v1.2H2.064v-1.2z"/><path fill-rule="evenodd" clip-rule="evenodd" d="M3.461 3.274a.6.6 0 0 1 .6.6v8.756c0 .548.444.992.992.992h6.367a.991.991 0 0 0 .992-.992V3.874a.6.6 0 1 1 1.2 0v8.756c0 1.21-.98 2.192-2.192 2.192H5.053A2.191 2.191 0 0 1 2.86 12.63V3.874a.6.6 0 0 1 .6-.6zM5.25.687h5.975v1.2H5.25v-1.2z"/></symbol><symbol viewBox="0 0 22 22" id="user" xmlns="http://www.w3.org/2000/svg"><path fill-rule="evenodd" clip-rule="evenodd" d="M13.263 3.737a3.2 3.2 0 1 0-4.526 4.526 3.2 3.2 0 0 0 4.526-4.526zM7.606 2.606a4.8 4.8 0 1 1 6.788 6.788 4.8 4.8 0 0 1-6.788-6.788zM18.11 19.2a.094.094 0 0 0 .09-.098V17.49c0-2.045-1.64-3.689-3.645-3.689h-7.11c-2.006 0-3.645 1.644-3.645 3.689v1.613c0 .061.047.098.089.098H18.11zm1.69-.098c0 .93-.75 1.698-1.69 1.698H3.89c-.94 0-1.69-.768-1.69-1.698V17.49c0-2.913 2.342-5.289 5.245-5.289h7.111c2.904 0 5.245 2.376 5.245 5.29v1.612z"/></symbol><symbol viewBox="0 0 20 20" id="yt" xmlns="http://www.w3.org/2000/svg"><path fill-rule="evenodd" clip-rule="evenodd" d="M16.945 3.698a2.207 2.207 0 0 1 1.572 1.544c.37 1.361.372 4.202.372 4.202s0 2.842-.372 4.203a2.207 2.207 0 0 1-1.572 1.543c-1.385.366-6.945.366-6.945.366s-5.56 0-6.945-.365a2.207 2.207 0 0 1-1.572-1.544c-.372-1.361-.372-4.203-.372-4.203s0-2.84.372-4.202a2.207 2.207 0 0 1 1.572-1.544C4.44 3.333 10 3.333 10 3.333s5.56 0 6.945.365zM12.84 9.445l-4.618 2.618V6.826l4.618 2.619z"/></symbol></svg>