<svg width="54" height="54" viewBox="0 0 54 54" fill="none" xmlns="http://www.w3.org/2000/svg">
<path d="M14.5443 21.6157H6.53833V26.9175H14.5443V21.6157Z" fill="#7F91EC"/>
<path d="M43.14 38.8469H6.53833V41.4978H43.14V38.8469Z" fill="#7F91EC"/>
<path d="M48.4761 38.4224V18.4744C48.4761 17.2815 47.5821 16.314 46.4746 16.314H3.20133C2.09383 16.314 1.19983 17.2815 1.19983 18.4744V44.6387C1.19983 45.8316 2.09383 46.7992 3.20133 46.7992H46.4746C47.5821 46.7992 48.4761 45.8316 48.4761 44.6387V38.4224ZM5.20284 20.953C5.20284 20.5819 5.49639 20.2903 5.87 20.2903H15.2104C15.584 20.2903 15.8775 20.5819 15.8775 20.953V27.5802C15.8775 27.9514 15.584 28.243 15.2104 28.243H5.87C5.49639 28.243 5.20284 27.9514 5.20284 27.5802V20.953ZM44.4731 42.1601C44.4731 42.5313 44.1796 42.8229 43.806 42.8229H5.87C5.49639 42.8229 5.20284 42.5313 5.20284 42.1601V38.1838C5.20284 37.8127 5.49639 37.5211 5.87 37.5211H43.806C44.1796 37.5211 44.4731 37.8127 44.4731 38.1838V42.1601Z" fill="#7F91EC"/>
<path fill-rule="evenodd" clip-rule="evenodd" d="M3.94226 15.2469H47.2506C48.5761 15.2469 49.6505 16.3213 49.6505 17.6468V40.1749L51.6193 39.99C52.7504 39.8838 53.5813 38.8808 53.4751 37.7497L51.0075 11.4662C50.9013 10.3351 49.8983 9.50427 48.7672 9.61046L5.7579 13.6483C4.8475 13.7338 4.13161 14.4003 3.94226 15.2469Z" fill="#7F91EC"/>
</svg>
