<svg width="54" height="24" viewBox="0 0 54 24" fill="none" xmlns="http://www.w3.org/2000/svg">
<rect y="-0.00311279" width="53.5196" height="24" rx="2" fill="#C1C6E5"/>
<path d="M35.252 13.6696V15.0681C35.252 15.623 35.252 16.1763 35.252 16.7296C35.252 16.9152 35.1997 16.9911 34.9989 16.9894C34.223 16.9793 33.4464 16.9793 32.6693 16.9894C32.4719 16.9894 32.418 16.9236 32.418 16.733C32.418 13.5774 32.418 10.4212 32.418 7.26446C32.418 7.06878 32.4838 7.00805 32.6744 7.00973C33.4605 7.00973 34.2466 7.01986 35.036 7.00973C35.2351 7.00973 35.3093 7.10926 35.3734 7.26108C35.8143 8.19338 36.2568 9.12567 36.701 10.058C36.7508 10.1757 36.8899 10.1133 36.8899 9.98542C36.8899 9.0998 36.8899 8.21249 36.8899 7.32687C36.8899 7.09408 36.9389 7.0013 37.1936 7.00636C37.9426 7.02323 38.6916 7.01817 39.4422 7.00636C39.6632 7.00636 39.7256 7.08396 39.7256 7.29651C39.7256 10.4341 39.7256 13.5723 39.7256 16.7111C39.7256 16.9338 39.6463 16.9911 39.4355 16.9877C38.6764 16.9776 37.9178 16.9776 37.1598 16.9877C37.079 16.9981 36.9971 16.9801 36.9282 16.9367C36.8593 16.8933 36.8076 16.8272 36.782 16.7499C36.3619 15.8373 35.925 14.9331 35.4932 14.0255C35.4609 13.9564 35.4256 13.8888 35.3903 13.8216C35.3542 13.753 35.298 13.6081 35.2486 13.6679" fill="white"/>
<path d="M23.9259 10.1008C23.985 9.99962 24.0508 9.9001 24.1064 9.79551C24.5501 8.95206 24.9887 8.09343 25.4424 7.24998C25.4719 7.19317 25.5135 7.14349 25.5642 7.10444C25.6649 7.02685 25.8 7.02268 25.9272 7.0208C26.798 7.00796 27.6688 7.01393 28.5396 7.0155C28.631 7.02769 28.6718 7.12893 28.6306 7.21146C28.5442 7.38449 28.4628 7.54715 28.3793 7.70882C27.8103 8.8053 27.2373 9.90179 26.6604 10.9983C26.6117 11.0745 26.5818 11.1611 26.573 11.2511C26.5642 11.3411 26.5768 11.432 26.6098 11.5162C27.2626 13.2486 27.8969 14.9878 28.5362 16.7253C28.5815 16.8462 28.4867 16.983 28.3577 16.9878C28.3463 16.9882 28.335 16.9885 28.3237 16.9885C27.5089 16.9885 26.6941 16.9885 25.881 16.9885C25.8002 16.9995 25.7182 16.9793 25.6518 16.9319C25.5206 16.8385 25.4966 16.6575 25.4422 16.506C25.2575 15.9916 25.0653 15.4778 24.8756 14.9692C24.8345 14.854 24.6685 14.8556 24.6119 14.9641L24.1334 15.8818C23.9765 16.1838 23.8348 16.4959 23.6577 16.786C23.6222 16.8383 23.5761 16.8825 23.5223 16.9156C23.4685 16.9488 23.4083 16.9702 23.3456 16.9783C22.6709 16.9969 22.013 16.9783 21.3467 16.9935C21.0936 16.9935 21.0413 16.9142 21.043 16.6781C21.0514 14.1308 21.043 11.5836 21.043 9.03641C21.043 8.44599 21.043 7.85558 21.043 7.26516C21.043 7.06948 21.1088 7.00875 21.2994 7.01213C22.0568 7.01213 22.8176 7.02225 23.575 7.01213C23.796 7.01213 23.8618 7.0796 23.8584 7.2989C23.8483 8.1744 23.8584 9.05159 23.8584 9.92878C23.8584 9.96096 23.8584 9.99379 23.8608 10.0265C23.8635 10.064 23.8914 10.0939 23.9276 10.1042" fill="white"/>
<path d="M42.8093 11.9656C42.8093 12.1967 42.8177 12.4278 42.8093 12.6573C42.8009 12.8867 42.9122 12.9457 43.118 12.8833C43.3051 12.8133 43.466 12.6872 43.5789 12.5224C43.6918 12.3576 43.7512 12.162 43.7489 11.9623C43.7403 11.7579 43.6653 11.5619 43.5353 11.4039C43.4054 11.2459 43.2275 11.1346 43.0286 11.0868C42.8785 11.053 42.816 11.1036 42.8144 11.2453C42.8144 11.4865 42.8144 11.7261 42.8144 11.9656M40.252 11.9741C40.252 10.4238 40.252 8.87185 40.252 7.32159C40.252 7.07531 40.3211 7.00277 40.5657 7.00952C41.3586 7.03145 42.1582 6.96228 42.9274 7.21026C44.761 7.79392 45.9638 9.01018 46.3838 10.8742C46.9776 13.467 45.5792 15.8775 43.059 16.7463C42.337 16.9943 41.588 16.996 40.8373 16.9875C40.2536 16.9875 40.2536 16.9875 40.2536 16.4072V11.9741" fill="white"/>
<path d="M31.8791 16.9708H29.3965C29.2267 16.9708 29.0721 16.8337 29.0721 16.6638C29.0721 13.5543 29.0721 10.4453 29.0721 7.33692C29.0721 7.09063 29.1294 6.99954 29.3926 6.99954C30.123 7.01641 30.8534 7.01304 31.5856 6.99954C31.8167 6.99954 31.9111 7.04846 31.9111 7.30487C31.9033 10.4301 31.9033 13.5571 31.9111 16.6857C31.9111 16.7667 31.8993 16.8544 31.8909 16.9624" fill="white"/>
<path d="M9.94701 14.6183C9.74121 14.6807 9.6265 14.6369 9.63831 14.3923C9.65012 14.1477 9.63831 13.9318 9.63831 13.7007C9.63831 13.4611 9.63831 13.2216 9.63831 12.9804C9.63831 12.8387 9.70241 12.788 9.85255 12.8218C10.0521 12.8686 10.2309 12.9793 10.3619 13.137C10.4928 13.2947 10.5686 13.4908 10.5779 13.6956C10.5802 13.8954 10.5208 14.091 10.4079 14.2558C10.2951 14.4206 10.1341 14.5466 9.94701 14.6166M9.64843 9.44124C9.64843 9.29616 9.64843 9.15278 9.64843 9.00771C9.64843 8.92336 9.68554 8.89299 9.77664 8.91155C9.89623 8.94094 10.0031 9.00825 10.0812 9.10343C10.1555 9.19382 10.2 9.30472 10.209 9.42103C10.21 9.43336 10.2102 9.44574 10.2102 9.45811C10.211 9.46427 10.211 9.4705 10.2102 9.47666C10.2029 9.5883 10.1636 9.69546 10.0968 9.78525C10.0301 9.87504 9.9388 9.94362 9.83399 9.98273C9.71085 10.0215 9.64168 9.99454 9.64843 9.84778C9.65518 9.70102 9.64843 9.56944 9.64843 9.43112M15.9676 10.0974C15.9676 9.8967 16.0249 9.80561 16.2493 9.81067C16.9341 9.82416 17.619 9.81067 18.3039 9.8191C18.5283 9.8191 18.6126 9.75837 18.6092 9.5239C18.5974 8.78503 18.5957 8.04617 18.6092 7.309C18.6092 7.05934 18.5249 6.99523 18.287 6.99692C16.6777 7.00592 15.0679 7.00592 13.4575 6.99692C13.196 6.99692 13.1336 7.07789 13.1353 7.3343C13.1454 9.07855 13.1353 10.8245 13.1353 12.5637V12.8416C13.1353 12.8616 13.1215 12.879 13.102 12.8835C13.0799 12.8886 13.0576 12.8756 13.0508 12.854C12.799 12.0571 12.2848 11.5017 11.5014 11.1465C11.4389 11.1182 11.4328 11.0278 11.4888 10.9881C12.2294 10.3842 12.501 9.60149 12.2547 8.69057C12.154 8.2419 11.9089 7.83867 11.5569 7.54278C11.205 7.24688 10.7656 7.07467 10.3063 7.05259C9.24523 6.96025 8.17076 7.0183 7.10289 7.01219C7.0928 7.01214 7.0827 7.01308 7.07297 7.01571C7.0257 7.02849 7 7.07606 7 7.12502V16.8686C7 16.9189 7.02942 16.9662 7.07864 16.9763C7.08578 16.9777 7.09307 16.9783 7.10035 16.9783C8.12405 16.9787 9.15105 17.0303 10.1697 16.9597C10.7511 16.9377 11.3141 16.7498 11.7923 16.4184C12.2705 16.0869 12.644 15.6257 12.8687 15.089C12.937 14.9381 12.9963 14.7842 13.0594 14.6316C13.0662 14.615 13.0838 14.6056 13.1013 14.609C13.1191 14.6125 13.1319 14.628 13.1319 14.6461V16.8115C13.1319 16.8946 13.1861 16.9702 13.2685 16.98C14.9723 16.98 16.6744 16.98 18.3764 16.98C18.5789 16.98 18.5957 16.8703 18.5957 16.7151C18.5957 15.9577 18.5957 15.1969 18.5957 14.4446C18.5957 14.227 18.5215 14.1527 18.3056 14.1561C17.6764 14.1561 17.0472 14.1561 16.418 14.1561C15.9456 14.1561 15.9574 14.1561 15.9507 13.6821C15.9507 13.4324 16.0452 13.3667 16.2881 13.37C16.9628 13.3818 17.6376 13.37 18.3123 13.3785C18.5283 13.3785 18.6042 13.3059 18.6008 13.0883C18.6008 12.3511 18.589 11.6123 18.6008 10.8734C18.6008 10.6254 18.5165 10.5563 18.2786 10.5613C17.5937 10.5748 16.9088 10.5613 16.224 10.5613C16.0384 10.5613 15.9608 10.5141 15.9608 10.3117L15.9676 10.0974Z" fill="white"/>
</svg>
