<svg width="16" height="16" viewBox="0 0 16 16" fill="none" xmlns="http://www.w3.org/2000/svg">
<path d="M9.36981 14.8574H6.62695" stroke="black" stroke-width="1.2" stroke-linecap="square" stroke-linejoin="round"/>
<path fill-rule="evenodd" clip-rule="evenodd" d="M3.11468 6.2861C3.11468 3.58816 5.30245 1.40039 8.00039 1.40039C10.6983 1.40039 12.8861 3.58816 12.8861 6.2861V8.43239C12.8861 8.48158 12.9136 8.52811 12.9604 8.55215L13.3897 8.76638C14.1311 9.13709 14.6004 9.89526 14.6004 10.7244C14.6004 11.9335 13.6203 12.9135 12.4112 12.9135H3.58953C2.38045 12.9135 1.40039 11.9335 1.40039 10.7244C1.40039 9.89512 1.86928 9.13759 2.60995 8.76608L3.04103 8.55096C3.08652 8.52796 3.11468 8.48202 3.11468 8.43239V6.2861Z" fill="black"/>
</svg>
