<svg width="20" height="21" viewBox="0 0 20 21" fill="none" xmlns="http://www.w3.org/2000/svg">
<path fill-rule="evenodd" clip-rule="evenodd" d="M12.8613 9.71216C12.8613 8.72532 13.6609 7.92578 14.6477 7.92578H17.5786C17.9238 7.92578 18.2036 8.2056 18.2036 8.55078C18.2036 8.89596 17.9238 9.17578 17.5786 9.17578H14.6477C14.3512 9.17578 14.1113 9.41568 14.1113 9.71216V10.6632C14.1113 10.9597 14.3512 11.1996 14.6477 11.1996H17.5786C17.9238 11.1996 18.2036 11.4794 18.2036 11.8246C18.2036 12.1698 17.9238 12.4496 17.5786 12.4496H14.6477C13.6609 12.4496 12.8613 11.6501 12.8613 10.6632V9.71216Z" fill="black"/>
<path fill-rule="evenodd" clip-rule="evenodd" d="M4.48261 5.08203C3.9234 5.08203 3.4707 5.53472 3.4707 6.09394V14.2785C3.4707 14.8377 3.9234 15.2904 4.48261 15.2904H15.9409C16.5002 15.2904 16.9528 14.8377 16.9528 14.2785V6.09394C16.9528 5.53472 16.5002 5.08203 15.9409 5.08203H4.48261ZM2.2207 6.09394C2.2207 4.84437 3.23304 3.83203 4.48261 3.83203H15.9409C17.1905 3.83203 18.2028 4.84437 18.2028 6.09394V14.2785C18.2028 15.528 17.1905 16.5404 15.9409 16.5404H4.48261C3.23304 16.5404 2.2207 15.528 2.2207 14.2785V6.09394Z" fill="black"/>
</svg>
