<svg width="20" height="21" viewBox="0 0 20 21" fill="none" xmlns="http://www.w3.org/2000/svg">
<path d="M15.0866 11.7454H13.1074" stroke="black" stroke-width="1.33333" stroke-linecap="square" stroke-linejoin="round"/>
<path d="M7.17057 11.7452H5.19141" stroke="black" stroke-width="1.33333" stroke-linecap="square" stroke-linejoin="round"/>
<path d="M15.9794 8.58203L15.3152 5.40586C15.1229 4.48911 14.3146 3.83203 13.3772 3.83203H6.98057C6.06145 3.83203 5.26266 4.46536 5.05366 5.36074L4.30078 8.58203" stroke="black" stroke-width="1.33333" stroke-linecap="round" stroke-linejoin="round"/>
<path fill-rule="evenodd" clip-rule="evenodd" d="M3.21224 16.497H4.99349C5.64899 16.497 6.18099 15.965 6.18099 15.3095V14.5178H14.0977V15.3095C14.0977 15.965 14.6297 16.497 15.2852 16.497H17.0664C17.6127 16.497 18.056 16.0536 18.056 15.5074V10.9553C18.056 9.6435 16.9928 8.58029 15.681 8.58029H4.59766C3.28586 8.58029 2.22266 9.6435 2.22266 10.9553V15.5074C2.22266 16.0536 2.66599 16.497 3.21224 16.497Z" stroke="black" stroke-width="1.33333" stroke-linecap="round" stroke-linejoin="round"/>
</svg>
