<svg width="81" height="14" viewBox="0 0 81 14" fill="none" xmlns="http://www.w3.org/2000/svg">
<g clip-path="url(#clip0_3205_929)">
<path d="M65.333 6.72058L62.2436 3.24707H60.4375V11.2894H62.3232V6.15825L65.1438 9.1983H65.4924L68.2643 6.15825V11.2894H70.15V3.24707H68.3439L65.333 6.72058Z" fill="black"/>
<path d="M79.135 3.24707L74.4609 8.47431V3.24707H72.5752V11.2894H74.3028L78.9768 6.06218V11.2894H80.8626V3.24707H79.135Z" fill="black"/>
<path d="M50.2807 6.18987C50.2807 7.47033 50.9732 8.479 52.036 8.90191L50.043 11.2894H52.3512L54.1641 9.11747H56.1261V11.2894H58.0116V3.24707H53.2108C51.4209 3.24707 50.2807 4.48534 50.2807 6.18988L50.2807 6.18987ZM56.1272 5.01836V7.39651H53.5605C52.7043 7.39651 52.2449 6.91385 52.2449 6.20627C52.2449 5.49868 52.7203 5.01601 53.5605 5.01601L56.1272 5.01836Z" fill="black"/>
<path d="M41.5162 4.85553C41.4008 7.62145 40.8238 9.40682 39.694 9.40682H39.4111V11.3375L39.7124 11.3539C41.9777 11.4816 43.23 9.47126 43.4354 5.08047H46.4151V11.2894H48.2975V3.24707H41.5796L41.5162 4.85554L41.5162 4.85553Z" fill="black"/>
<path d="M34.4147 3.13281C31.8643 3.13281 30.0293 4.91818 30.0293 7.26588C30.0293 9.69441 32.0258 11.4165 34.4147 11.4165C36.9028 11.4165 38.8359 9.59835 38.8359 7.26588C38.8359 4.93341 36.9028 3.13281 34.4147 3.13281ZM34.4147 9.48588C32.9732 9.48588 31.9912 8.53696 31.9912 7.26588C31.9912 5.96317 32.9744 5.04002 34.4147 5.04002C35.8549 5.04002 36.8705 6.00535 36.8705 7.26588C36.8705 8.52643 35.841 9.48588 34.4147 9.48588Z" fill="black"/>
<path d="M28.0317 3.26465H21.3763L21.3127 4.87312C21.2182 7.19035 20.6203 9.39396 19.4905 9.42558L18.9678 9.442V13.1908H20.8696V11.293H27.4765V13.1908H29.3947V9.42558H28.0317V3.26465ZM26.1459 9.42558H22.1218C22.8027 8.38061 23.1673 6.8682 23.2309 5.09922H26.1459V9.42558Z" fill="black"/>
<path d="M14.6284 1.42773H12.7998V11.3277H14.6284V1.42773Z" fill="black"/>
<path d="M10.3628 2.05176H8.53418V11.9518H10.3628V2.05176Z" fill="black"/>
<path d="M6.09421 2.66699H4.26562V12.567H6.09421V2.66699Z" fill="black"/>
<path d="M1.82858 3.29102H0V13.191H1.82858V3.29102Z" fill="black"/>
</g>
<defs>
<clipPath id="clip0_3205_929">
<rect width="81" height="12.375" fill="white" transform="translate(0 0.8125)"/>
</clipPath>
</defs>
</svg>
