<svg width="20" height="20" viewBox="0 0 20 20" fill="none" xmlns="http://www.w3.org/2000/svg">
<path fill-rule="evenodd" clip-rule="evenodd" d="M15.7899 17.0413L18.8182 14.013C19.165 13.6662 19.165 13.1047 18.8182 12.7587L17.4114 11.3519C17.0645 11.0051 16.5031 11.0051 16.1571 11.3519L13.1288 14.3802C12.962 14.547 12.8689 14.7723 12.8689 15.0074V17.3012H15.1628C15.3978 17.3012 15.6231 17.2081 15.7899 17.0413V17.0413Z" stroke="black" stroke-width="1.3" stroke-linecap="square"/>
<path d="M5.77026 11.0929H9.31838" stroke="black" stroke-width="1.3" stroke-linecap="square"/>
<path d="M5.77026 6.65738H12.8665" stroke="black" stroke-width="1.3" stroke-linecap="square"/>
<path d="M16.4146 7.54483V4.88375C16.4146 3.41394 15.2234 2.22266 13.7536 2.22266H4.88326C3.41345 2.22266 2.22217 3.41394 2.22217 4.88375V12.867C2.22217 14.3368 3.41345 15.5281 4.88326 15.5281H9.31841" stroke="black" stroke-width="1.3" stroke-linecap="square"/>
</svg>
