<svg width="92" height="132" viewBox="0 0 92 132" fill="none" xmlns="http://www.w3.org/2000/svg">
<path fill-rule="evenodd" clip-rule="evenodd" d="M42.3668 0.22992C55.7679 -1.20578 70.1962 4.11475 78.4125 15.2794C82.3053 20.7519 85.5023 26.765 87.4902 33.2172C91.4989 45.598 92.2278 58.4855 91.9462 71.4405C91.7971 83.4835 89.7596 95.6278 84.9226 106.674C77.5014 122.737 64.9781 131.014 47.6345 131.993C35.2272 132.196 22.9027 127.889 14.5539 118.329C4.36636 106.657 0.307905 87.4021 0.142254 72.1668C-0.222179 65.191 0.175384 58.1983 0.639208 51.2225C1.56685 39.6694 5.17805 28.2007 11.5225 18.5393C18.6124 8.30361 30.1914 1.64873 42.3668 0.22992ZM43.0294 6.47943C32.4608 7.74622 22.5549 13.7086 16.4589 22.6099C10.3629 31.9842 7.16587 43.5204 6.53639 54.702C5.97318 63.9918 5.84066 73.3492 7.11617 82.5883C8.77268 92.8577 10.9261 102.992 17.2209 111.404C24.5427 121.217 35.5916 125.997 47.6179 125.71C62.4934 124.713 72.6147 117.619 79.2076 104.107C81.6261 98.7526 83.1998 93.0435 84.2931 87.2839C86.1981 77.9603 86.0324 68.3833 85.7343 58.9077C84.8232 44.6521 81.9574 29.5688 72.7306 18.3028C65.6076 9.60418 53.9955 5.31398 43.0294 6.47943ZM45.2491 13.9113C41.6213 24.0625 37.4469 34.011 32.6927 43.6724C31.7485 45.6317 30.6718 47.591 29.065 49.0605C28.1208 49.9557 26.8121 50.1753 25.5863 50.378C25.5366 50.6989 25.4869 51.0029 25.4372 51.3239C30.5393 51.307 35.6413 51.307 40.7434 51.3239C40.7434 51.0874 40.7434 50.5976 40.7268 50.3611C39.3188 50.0909 37.6954 49.8544 36.834 48.5369C37.1156 45.0237 38.6727 41.7638 39.9648 38.5377C44.0398 38.5546 48.1149 38.5039 52.1899 38.7573C53.0844 41.1726 53.9458 43.6049 54.774 46.0371C55.1716 47.1181 55.2213 48.52 54.3102 49.3477C53.4985 50.1415 52.2893 49.8882 51.2622 49.9726C51.2125 50.4118 51.1794 50.8509 51.1297 51.307C56.2815 51.2901 61.4166 51.2901 66.5684 51.307C66.5021 51.0029 66.3862 50.4118 66.3365 50.1077C64.1665 49.8544 62.1621 48.4863 61.1516 46.4932C55.4863 36.0548 50.9972 25.0253 46.7731 13.9113C46.6406 13.6072 46.4749 13.3032 46.2761 13.033C45.6135 12.7965 45.3982 13.4214 45.2491 13.9113ZM40.7931 36.1224C44.3049 36.1055 47.8167 36.2068 51.3285 36.0548C49.5395 31.4606 47.8498 26.8157 45.9448 22.2552C44.338 26.917 42.4827 31.4943 40.7931 36.1224ZM17.8338 57.793C14.3386 60.715 12.8311 66.3902 15.5147 70.3426C18.132 73.9065 22.2567 75.7138 25.8679 77.9434C28.3361 79.3622 31.0362 80.7641 32.5933 83.2977C33.8357 85.3752 33.7198 88.3142 32.0301 90.0877C30.4564 91.6585 28.2036 92.4693 26.017 92.4355C23.3831 92.2497 20.8155 91.2701 18.6952 89.6654C17.2209 88.4831 16.4589 86.7096 15.5313 85.105C14.968 86.5913 14.6202 88.1284 14.3054 89.6992C15.6141 91.0842 17.3534 91.9794 19.0265 92.824C23.1512 94.665 28.1042 95.4758 32.3283 93.4996C34.8793 92.3679 36.6518 89.9864 37.7451 87.4528C38.8881 84.7165 38.2752 81.4735 36.7015 79.0413C34.9456 76.4232 32.262 74.6328 29.5453 73.1803C26.5471 71.6939 23.5985 70.0217 20.9315 67.9442C19.4738 66.7787 18.2479 65.0221 18.3805 63.0628C18.7283 60.4954 20.8321 58.2828 23.3666 57.8605C25.8016 57.4214 28.5183 57.9956 30.4233 59.6678C31.5166 60.5968 31.997 61.9987 32.262 63.3668C33.0903 62.269 34.1008 61.2724 34.6805 60.0225C32.8252 57.9787 30.4564 56.3235 27.7563 55.7661C24.377 55.1074 20.5836 55.5465 17.8338 57.793ZM38.5733 68.0286C38.5568 68.282 38.5236 68.8056 38.5071 69.059C39.7992 69.1772 41.2403 69.0927 42.3171 69.9542C43.1288 70.7987 43.1287 72.0824 43.2281 73.1971C43.2613 82.6052 43.195 92.0301 43.2778 101.455C43.2944 103.245 43.0625 105.34 41.6379 106.573C40.6771 107.282 39.4016 107.198 38.2586 107.198C38.2586 107.553 38.2586 107.907 38.2586 108.245C43.1784 108.245 48.0983 108.245 53.0181 108.245C53.0181 107.806 53.0347 107.384 53.0513 106.961C51.6267 106.944 49.9867 106.86 48.9265 105.762C48.3302 104.782 48.2474 103.583 48.1314 102.468C48.0983 97.8743 48.1314 93.2631 48.1149 88.6689C53.1672 88.6351 58.203 88.7365 63.2554 88.7365C63.2885 90.0708 63.3051 91.4221 63.3548 92.7564C63.3051 93.5672 63.3051 94.3779 63.3548 95.2055C63.2554 97.756 63.3548 100.323 63.3051 102.874C63.2885 104.056 62.9903 105.306 62.2118 106.218C61.2344 107.164 59.7933 107.08 58.5509 107.215C58.5343 107.468 58.4846 107.992 58.4681 108.245C63.3713 108.262 68.2912 108.228 73.211 108.245C73.1945 107.924 73.1779 107.299 73.1613 106.995C71.8361 106.978 70.3618 106.911 69.3182 105.982C68.4237 104.951 68.2415 103.499 68.2415 102.164C68.2415 98.4485 68.2415 94.7157 68.2415 90.9998C67.9433 85.3077 68.1918 79.6155 68.0758 73.9234C68.0758 72.3526 68.4403 70.5115 69.8152 69.5826C70.7759 68.8901 72.0349 69.1434 73.1282 69.1096C73.1448 68.8732 73.1945 68.4002 73.2276 68.1638C68.3409 68.1806 63.4376 68.1469 58.5509 68.1806C58.5509 68.4171 58.5343 68.8901 58.5343 69.1265C59.9258 69.1265 61.6486 68.9576 62.6259 70.1906C63.2885 71.4067 63.2554 72.8762 63.2719 74.2444C63.2388 78.0278 63.3051 81.7944 63.3051 85.5779C58.2527 85.5779 53.2003 85.5779 48.1314 85.5779C48.1314 81.4566 48.148 77.3184 48.1314 73.1971C48.0817 72.0148 48.3965 70.7818 49.1916 69.8866C50.2352 68.89 51.7426 69.1603 53.0347 69.1434C53.0347 68.8563 53.0513 68.2989 53.0513 68.0117C48.2308 68.0624 43.3938 68.0286 38.5733 68.0286Z" fill="#E4E4E4"/>
</svg>
