<svg width="63" height="85" viewBox="0 0 63 85" fill="none" xmlns="http://www.w3.org/2000/svg">
<path fill-rule="evenodd" clip-rule="evenodd" d="M0 33.2016C0 51.7093 18.3338 67.8626 28.7119 82.7015C30.1799 84.8004 32.7732 84.7844 34.2294 82.7015C44.6032 67.8626 62.9371 51.7093 62.9371 33.2016C62.9371 16.9806 48.8475 0 31.4685 0C14.0895 0 0 16.9806 0 33.2016Z" fill="#0052A0"/>
<path d="M14.4219 36.0114V44.3089H15.8579V41.8998C16.1386 42.132 16.4477 42.2714 16.7789 42.2714C17.2534 42.2714 17.6435 42.0335 17.9496 41.5577C18.2933 41.0281 18.4646 40.2463 18.4646 39.2233C18.4646 38.5095 18.3272 37.8672 18.059 37.32L18.0121 37.2305L17.9651 37.1563L17.9337 37.082L17.8867 37.0226L17.8398 36.9483L17.7773 36.8741L17.7304 36.8146L17.6834 36.7551L17.621 36.6957L17.574 36.6362L17.5116 36.5767L17.4492 36.532L17.3867 36.4725L17.3243 36.4278L17.2619 36.3831L17.1994 36.3383L17.1215 36.3088L17.0591 36.2641L16.9966 36.2346L16.9187 36.2051L16.8408 36.1751L16.7629 36.1451L16.685 36.1156L16.6071 36.1009L16.5291 36.0861L16.4512 36.0714L16.3578 36.0419H16.2799L16.1865 36.0271H16.1086L16.0147 36.0124H15.9213H14.4219V36.0114ZM15.7799 37.1862H15.9203C16.2824 37.1862 16.5636 37.3856 16.7629 37.7663C16.9627 38.1469 17.0596 38.7355 17.0596 39.5506C17.0596 39.9908 17.0031 40.3386 16.8723 40.5765C16.7474 40.8144 16.5851 40.9334 16.4043 40.9334C16.2295 40.9334 16.0856 40.8206 15.9672 40.606C15.8489 40.3981 15.7799 40.0978 15.7799 39.6991V37.1862Z" fill="white"/>
<path d="M48.2055 35.6119L48.0872 35.7247C48.0872 35.7247 45.0844 38.7105 44.8596 38.9365V36.0102H43.4551V44.3253H44.8596V40.9112C44.897 40.8698 46.7011 39.0493 46.9074 38.8414C46.9199 39.1445 47.1132 44.3253 47.1132 44.3253H48.5492L48.2055 35.6119Z" fill="white"/>
<path d="M41.3593 35.7252L41.3528 35.7371L41.3403 35.7428L41.3278 35.7609L41.3088 35.7785L41.2839 35.8023L41.2589 35.8261L41.2274 35.856L41.1965 35.886L41.159 35.9217L41.1215 35.9636L41.0776 36.005L41.0341 36.0464L40.9902 36.0939L40.9402 36.1415L40.8843 36.1948L40.7719 36.3081L40.6535 36.427L40.5287 36.5522L40.3978 36.683L40.2605 36.8196L40.1166 36.9561L39.9733 37.0989L39.8294 37.2478L39.5362 37.539L39.3929 37.6818L39.2495 37.8188L39.1122 37.9554L38.9813 38.0924L38.8504 38.2176L38.7316 38.3365L38.6192 38.4493L38.5632 38.5026L38.5133 38.5563L38.4634 38.6039L38.4194 38.6515L38.3759 38.6934L38.3385 38.7353L38.301 38.7709L38.2636 38.8066L38.2326 38.8366L38.2076 38.8604L38.1827 38.8842L38.1637 38.908L38.1447 38.9199L38.1322 38.938V36.0116H36.7207V44.3267H38.1317V40.9126C38.1692 40.8712 39.9738 39.0507 40.1795 38.8428C40.192 39.1459 40.3858 44.3267 40.3858 44.3267H41.8153L41.4717 35.6119L41.3593 35.7252Z" fill="white"/>
<path d="M33.1898 42.2689L33.1024 42.168L33.0275 42.0671L32.9526 41.9539L32.8901 41.8411L32.8277 41.7222L32.7712 41.6032L32.7148 41.4785L32.6714 41.3534L32.6339 41.2168L32.5964 41.086L32.565 40.9432L32.54 40.8005L32.521 40.6515L32.5085 40.5026L32.502 40.348L32.4955 40.1933C32.4955 39.3192 32.7203 38.6231 33.1573 38.1116C33.6383 37.5525 34.3376 37.2732 35.2491 37.2732H35.3175V35.8219H35.2491C33.8256 35.8219 32.7328 36.2382 31.9901 37.0767C31.3158 37.8323 30.9727 38.8848 30.9727 40.2052C30.9727 41.4781 31.3473 42.5306 32.0775 43.3219C32.8517 44.1546 33.9195 44.5828 35.2681 44.5828H35.3365V43.1259H35.2681C34.3825 43.1254 33.6833 42.8399 33.1898 42.2689Z" fill="white"/>
<path d="M21.8998 35.8122C21.1446 35.8122 20.5417 36.2195 20.1047 37.0165C19.6801 37.8016 19.4648 38.8456 19.4648 40.1241C19.4648 41.4445 19.6676 42.5123 20.0737 43.2912C20.4858 44.0882 21.1006 44.4955 21.8998 44.4955C22.7179 44.4955 23.3637 44.0645 23.8197 43.2318C24.2443 42.4523 24.4595 41.3998 24.4595 40.1089C24.4595 38.836 24.2408 37.7949 23.8037 37.016L23.7568 36.9418L23.7098 36.8676L23.6784 36.7933L23.6159 36.7339L23.5845 36.6744L23.522 36.6149L23.4751 36.5554L23.4281 36.4959L23.3812 36.4365L23.3188 36.377L23.2718 36.3323L23.2094 36.2875L23.1624 36.2428L23.1 36.1981L23.053 36.1533L22.9906 36.1086L22.9282 36.0786L22.8657 36.0491L22.8033 36.0196L22.7409 35.9901L22.6784 35.9601L22.616 35.9302L22.5536 35.9154L22.4757 35.8854L22.4132 35.8707L22.3353 35.8559L22.2729 35.8412H22.2104L22.1325 35.8264L22.0546 35.8117H21.9767H21.8998V35.8122ZM21.8998 37.1502C22.2993 37.1502 22.593 37.4209 22.7738 37.9681C22.9486 38.4616 23.0236 39.1815 23.0236 40.1094C23.0236 41.0073 22.9362 41.7538 22.7429 42.3248L22.7114 42.3843L22.6959 42.429L22.6804 42.4738L22.665 42.5185L22.6495 42.5632L22.6185 42.6079L22.603 42.6527L22.5715 42.6826L22.5561 42.7274L22.5246 42.7573L22.5091 42.8021L22.4936 42.832L22.4627 42.8616L22.4312 42.8911L22.4157 42.9205L22.3847 42.9353L22.3693 42.9648L22.3378 42.9943L22.3068 43.0091L22.2754 43.0386L22.2439 43.0533L22.2124 43.068L22.1969 43.0828L22.1655 43.0975H22.134L22.1025 43.1123L22.0716 43.1271H22.0401L22.0086 43.1418H21.9772H21.9457H21.8988C21.5556 43.1418 21.2964 42.8625 21.1026 42.3091C20.9028 41.7319 20.8059 40.9915 20.8059 40.1232C20.8059 39.2372 20.9028 38.5053 21.1026 37.9524C21.2849 37.4238 21.5501 37.1502 21.8998 37.1502Z" fill="white"/>
<path d="M27.78 42.2689L27.7425 42.2213L27.6986 42.168L27.6171 42.0671L27.5487 41.9539L27.4798 41.8411L27.4174 41.7222L27.3614 41.6032L27.3115 41.4785L27.2615 41.3534L27.2241 41.2168L27.1866 41.086L27.1616 40.9432L27.1367 40.8005L27.1182 40.6515L27.1057 40.5026L27.0932 40.348V40.1933C27.0932 39.3192 27.3115 38.6231 27.755 38.1116C28.2295 37.5525 28.9288 37.2732 29.8403 37.2732H29.9152V35.8219H29.8403C28.4228 35.8219 27.324 36.2382 26.5877 37.0767C25.907 37.8323 25.5703 38.8848 25.5703 40.2052C25.5703 41.4781 25.9384 42.5306 26.6751 43.3219C27.4428 44.1546 28.5167 44.5828 29.8658 44.5828H29.9342V43.1259H29.8658C28.9722 43.1254 28.2729 42.8399 27.78 42.2689Z" fill="white"/>
<path d="M14.4375 23.8215V32.178H16.0548V25.2071H18.0527V32.178H19.6635V23.8215H14.4375Z" fill="white"/>
<path d="M24.6143 23.6017C23.7587 23.6017 23.0719 24.0119 22.5854 24.8213C22.1044 25.6126 21.8672 26.6594 21.8672 27.9436C21.8672 29.2698 22.0919 30.3556 22.554 31.1407C23.022 31.9439 23.7152 32.345 24.6143 32.345C25.5318 32.345 26.256 31.9258 26.768 31.0812C27.249 30.2961 27.5017 29.2346 27.5017 27.9436C27.5017 26.6589 27.2395 25.6059 26.7525 24.8213L26.7056 24.747L26.6586 24.6728L26.6117 24.5986L26.5492 24.5391L26.5023 24.4649L26.4398 24.4054L26.3929 24.3459L26.3305 24.2864L26.268 24.2269L26.2211 24.1822L26.1586 24.1227L26.0962 24.078L26.0338 24.0333L25.9713 23.9886L25.8934 23.9438L25.831 23.9138L25.7686 23.8691L25.7061 23.8391L25.6282 23.8092L25.5658 23.7797L25.4878 23.7497L25.4099 23.7197L25.3475 23.705L25.2696 23.675L25.1917 23.6602L25.1137 23.6455L25.0358 23.6307L24.9579 23.616H24.864H24.7861L24.7082 23.6012H24.6143V23.6017ZM24.6303 25.0144C25.0673 25.0144 25.3765 25.2823 25.5822 25.8176C25.7696 26.3054 25.863 27.0162 25.863 27.9441C25.863 28.8301 25.7536 29.571 25.5353 30.1301C25.323 30.6773 25.0298 30.9328 24.6303 30.9328H24.5833H24.5518H24.5204H24.4894L24.4579 30.918L24.4265 30.9033H24.395L24.3635 30.8885L24.3326 30.8738L24.3011 30.859L24.2696 30.8443L24.2382 30.8295L24.2067 30.7995L24.1757 30.7848L24.1443 30.7553L24.1128 30.7406L24.0973 30.7106L24.0659 30.6811L24.0344 30.6511L24.0189 30.6211L23.9874 30.5911L23.956 30.5464L23.9405 30.5164L23.909 30.4865L23.8935 30.4417L23.8626 30.397L23.8471 30.367L23.8316 30.3075L23.8001 30.2628L23.7847 30.2181L23.7692 30.1734L23.7377 30.1286C23.5194 29.5515 23.4101 28.8201 23.4101 27.9574C23.4101 27.0714 23.5194 26.3487 23.7377 25.8015C23.9465 25.2733 24.2367 25.0144 24.6303 25.0144Z" fill="white"/>
<path d="M36.2949 23.8215V25.2071H37.637V32.178H39.2543V25.2071H40.6153V23.8215H36.2949Z" fill="white"/>
<path d="M32.7533 26.7302H31.8733C31.5112 26.7302 31.2364 26.6531 31.0676 26.4985C30.9428 26.3914 30.8863 26.2425 30.8863 26.0522V23.8215H29.2695V26.2068C29.2695 26.754 29.5003 27.2237 29.9498 27.5924C30.3928 27.9555 30.9428 28.1396 31.5731 28.1396H32.7528V32.178H34.3701V23.8215H32.7528L32.7533 26.7302Z" fill="white"/>
<path d="M42.7205 23.8224L42.4238 32.1794H44.0316C44.0316 32.1794 44.1815 28.2747 44.1875 28.0901H46.2008C46.2198 28.2628 46.6688 32.1794 46.6688 32.1794H48.2921L47.5429 26.0679V25.9936V25.9194V25.8452L47.5274 25.7709V25.6967L47.5119 25.6372V25.563L47.4965 25.5035L47.481 25.4293L47.4655 25.3698L47.45 25.3103L47.4345 25.2508L47.419 25.1914L47.3876 25.1319L47.3721 25.0724L47.3566 25.0129L47.3251 24.9534L47.2937 24.9087L47.2622 24.8492L47.2467 24.8045L47.2152 24.745L47.1838 24.7003L47.1368 24.6556L47.1054 24.5961L47.0739 24.5661L47.0269 24.5067L46.9955 24.4767L46.9485 24.432L46.9016 24.3872L46.8546 24.3572L46.8232 24.3125L46.7607 24.2678C46.3552 23.9642 45.8052 23.8215 45.1065 23.8215H42.7205V23.8224ZM44.2659 25.2052H44.8433C45.2613 25.2052 45.5425 25.3332 45.7173 25.5768C45.8612 25.779 45.9576 26.1654 46.014 26.7069H44.2189V26.6921V26.6774V26.6626V26.6479V26.6331V26.6184V26.6036V26.5589V26.5142V26.4695L44.2344 26.4247V26.3652V26.3205V26.261V26.2016V26.1421V26.0826V25.9489V25.8299L44.2499 25.7705V25.711V25.6515V25.592V25.5326V25.4878V25.4283V25.3836V25.3389L44.2654 25.3089V25.2941V25.2794V25.2647V25.2499V25.2352V25.2204V25.2052H44.2659Z" fill="white"/>
</svg>
