<svg width="68" height="24" viewBox="0 0 68 24" fill="none" xmlns="http://www.w3.org/2000/svg">
<rect x="0.519592" y="-0.00311279" width="67.2901" height="24" rx="2" fill="#A7CFBC"/>
<path d="M15.7383 8.95848C15.9206 9.03056 16.0864 9.13898 16.2256 9.27714C16.3647 9.4153 16.4743 9.58032 16.5477 9.76216C16.6333 9.96737 16.6764 10.1878 16.6743 10.4102V11.6338C16.6743 12.0566 16.5688 12.3956 16.3577 12.6507C16.1568 12.8998 15.8796 13.076 15.5688 13.1521L16.6891 15.9969H15.0827L13.8295 13.1964H9.09886V15.9969H7.51959V8.84802H15.185C15.3749 8.84872 15.5627 8.88623 15.7383 8.95848ZM9.09886 11.6338H14.537C14.6734 11.6366 14.8082 11.6038 14.9279 11.5385C15.0409 11.4751 15.0974 11.3449 15.0974 11.1481V10.9858C15.0974 10.7795 15.0459 10.632 14.9427 10.5435C14.8395 10.4549 14.6994 10.4105 14.5223 10.4102H9.09886V11.6338Z" fill="white"/>
<path d="M23.7469 14.4342L22.9794 15.9968H18.1407V8.84796H26.6603L25.8509 10.4106H19.7176V11.6337H25.2143L24.4049 13.1963H19.7176V14.4342H23.7469Z" fill="white"/>
<path d="M35.337 11.5682H29.2213L31.0167 8.12967H35.337V11.5682ZM36.9877 6.70323C36.9639 6.66657 36.8972 6.50374 36.7382 6.49184C36.7163 6.49184 36.7068 6.47993 36.7087 6.47898H30.4202C30.3634 6.47813 30.3074 6.49213 30.2577 6.51961C30.208 6.54709 30.1663 6.58708 30.1369 6.63562C30.1045 6.69228 30.0217 6.84464 30.0217 6.84464L25.2753 15.987H26.915L26.9241 15.9703V15.987L27.0669 15.7127L28.4314 13.2489H35.3351V15.987H36.9877V6.70323Z" fill="white"/>
<path d="M38.6737 15.9582V14.6284H45.8911V13.1229H39.117C39.0726 13.1214 39.0291 13.1099 38.9898 13.0891C38.9281 13.0596 38.8709 13.0215 38.8199 12.9758C38.7726 12.9345 38.7326 12.8854 38.7018 12.8306C38.6885 12.8106 38.679 12.7883 38.6737 12.7649V9.3502C38.6786 9.32681 38.6878 9.30454 38.7008 9.2845C38.7324 9.23097 38.7723 9.18277 38.8189 9.14166C38.8703 9.0958 38.9278 9.05734 38.9898 9.0274C39.0292 9.00677 39.0726 8.99522 39.117 8.99359H47.5223V10.32H40.2954V11.815H47.0795C47.1238 11.8166 47.1671 11.8279 47.2066 11.8479C47.269 11.8772 47.3266 11.9157 47.3776 11.9622C47.4243 12.0033 47.4643 12.0515 47.4961 12.105C47.5088 12.1248 47.5178 12.1468 47.5228 12.1698V15.5978C47.5176 15.6212 47.5082 15.6434 47.4952 15.6635C47.4638 15.717 47.4241 15.7653 47.3776 15.8063C47.3264 15.8522 47.2688 15.8904 47.2066 15.9196C47.1674 15.9404 47.1239 15.9519 47.0795 15.9534L38.6737 15.9582Z" fill="white"/>
<path d="M57.2963 9.00106L56.655 8.99249V11.8039H51.0583V8.99249H49.4376V15.9576H51.0583V13.1342H56.655V15.9576H58.2857L58.2866 9.72095" fill="white"/>
<path d="M60.763 7.90277L60.8096 7.87087L60.763 7.86944L59.0395 7.83802L58.8871 7.83231L58.3096 6.04688L58.2953 5.99689L58.2739 6.06116L57.7968 7.44427L57.663 7.80898L57.654 7.83564L55.7852 7.86944L57.2574 8.98022L56.6803 10.7499L58.2386 9.70439L59.756 10.8094L59.8322 10.8633L59.8122 10.7952L59.2647 8.99974L59.6479 8.71074L60.763 7.90277Z" fill="white"/>
</svg>
