<svg width="90" height="90" viewBox="0 0 90 90" fill="none" xmlns="http://www.w3.org/2000/svg">
<path d="M66.1103 69.7357C62.2489 69.752 58.4056 69.2093 54.6997 68.1243C49.5488 66.4958 44.2607 65.3382 38.9005 64.6658C32.9935 64.2484 27.061 64.3668 21.1754 65.0195C17.5005 65.3049 13.8174 64.5801 10.5247 62.9234C10.4429 62.8774 10.3715 62.8149 10.315 62.74C7.23641 58.4954 5.48095 57.919 5.45475 57.919C5.34316 57.8843 5.24237 57.8215 5.16207 57.7366C5.08178 57.6517 5.02466 57.5476 4.99622 57.4343C3.92197 52.967 5.70365 49.063 7.76044 44.5564C8.19275 43.6132 8.63817 42.6438 9.07049 41.6219C11.4679 36.0411 9.33251 23.0322 9.30631 22.9012C9.27977 22.7312 9.32124 22.5575 9.42175 22.4177C9.52227 22.278 9.67375 22.1834 9.84344 22.1545C10.0151 22.1277 10.1904 22.1688 10.3322 22.269C10.4741 22.3693 10.5713 22.5209 10.6033 22.6916C10.695 23.2418 12.8172 36.1983 10.2757 42.1459C9.83032 43.1678 9.3849 44.1503 8.96568 45.0936C6.9744 49.4429 5.40235 52.9539 6.21458 56.8055C6.96131 57.1723 8.71677 58.3251 11.2976 61.8492C14.3384 63.3075 17.7067 63.9487 21.0706 63.7094C27.0302 63.0475 33.0379 62.9334 39.0184 63.3688C44.4933 64.0427 49.8956 65.2134 55.1582 66.8667C61.1059 68.7139 70.5907 69.3558 77.4292 66.4081C82.9969 63.9976 84.8703 60.9976 84.8965 60.9714C84.9397 60.8976 84.9971 60.8331 85.0656 60.7818C85.134 60.7304 85.212 60.6933 85.295 60.6726C85.378 60.6518 85.4643 60.6478 85.5489 60.6609C85.6334 60.674 85.7145 60.7039 85.7873 60.7487C85.8626 60.7905 85.9284 60.8474 85.9808 60.9157C86.0332 60.984 86.071 61.0623 86.0919 61.1458C86.1128 61.2294 86.1163 61.3163 86.1022 61.4012C86.0881 61.4861 86.0568 61.5672 86.01 61.6395C85.9314 61.7837 83.9402 65.0195 77.9401 67.6134C74.1811 69.114 70.1566 69.836 66.1103 69.7357Z" fill="black"/>
<path d="M34.3938 48.8902C33.8508 48.8906 33.3239 48.7058 32.9003 48.3662L24.005 41.6063C23.6282 41.3164 23.3267 40.9401 23.126 40.5091C22.9254 40.0782 22.8314 39.6052 22.8522 39.1303L23.6251 21.117C23.6282 21.0378 23.6134 20.9589 23.5816 20.8863C23.5498 20.8137 23.502 20.7492 23.4417 20.6978C23.3799 20.6435 23.3062 20.6046 23.2265 20.5841C23.1468 20.5636 23.0635 20.5622 22.9832 20.5799L10.0791 23.4358L9.77783 22.1258L22.7212 19.2174C22.9967 19.1533 23.2835 19.1542 23.5586 19.2201C23.8338 19.2861 24.0898 19.4152 24.3063 19.5973C24.5207 19.7782 24.6911 20.0055 24.8046 20.262C24.9181 20.5184 24.9717 20.7974 24.9614 21.0777L24.1884 39.091C24.1765 39.3569 24.2286 39.6218 24.3403 39.8635C24.452 40.1051 24.6201 40.3164 24.8303 40.4796L33.7125 47.305C33.9384 47.4816 34.2203 47.5708 34.5067 47.5563C34.793 47.5419 35.0645 47.4248 35.2715 47.2264L35.4942 47.0168C35.8231 46.6966 36.0708 46.3025 36.2166 45.8673C36.3625 45.4321 36.4022 44.9683 36.3326 44.5146L32.4025 20.9336C32.3102 20.3542 32.4234 19.7608 32.7224 19.256C33.0214 18.7512 33.4875 18.3668 34.04 18.1694L41.0095 15.7065C41.357 15.5823 41.7296 15.5448 42.0949 15.5973C42.4602 15.6498 42.8072 15.7907 43.1056 16.0078C43.4061 16.2263 43.6489 16.5146 43.8132 16.8478C43.9775 17.181 44.0584 17.5491 44.0489 17.9205C43.9702 21.5624 44.2716 30.7721 48.4768 37.27C48.5249 37.3417 48.5581 37.4224 48.5742 37.5073C48.5904 37.5921 48.5892 37.6794 48.5709 37.7638C48.5526 37.8482 48.5174 37.928 48.4674 37.9985C48.4175 38.0689 48.3539 38.1286 48.2803 38.1739C48.1359 38.2687 47.9599 38.3027 47.7906 38.2683C47.6213 38.234 47.4724 38.1341 47.3764 37.9905C42.9746 31.1913 42.6602 21.6672 42.7388 17.8812C42.7415 17.7226 42.7058 17.5657 42.6347 17.4239C42.5636 17.282 42.4593 17.1596 42.3305 17.0669C42.2018 16.9742 42.0525 16.914 41.8955 16.8916C41.7385 16.8691 41.5783 16.885 41.4287 16.9379L34.4724 19.4139C34.2072 19.5035 33.9825 19.6844 33.8385 19.9244C33.6944 20.1645 33.6405 20.4479 33.6863 20.724L37.5379 44.305C37.6475 44.9674 37.5938 45.6465 37.3815 46.2834C37.1691 46.9203 36.8046 47.4959 36.3195 47.96L36.2802 48.1565C36.0302 48.3978 35.7346 48.5869 35.4107 48.7129C35.0868 48.8388 34.7411 48.8991 34.3938 48.8902Z" fill="black"/>
<path d="M85.3288 61.8473C85.2428 61.8439 85.1582 61.8236 85.0801 61.7875C85.0019 61.7515 84.9316 61.7003 84.8732 61.6371C84.8148 61.5738 84.7694 61.4996 84.7397 61.4188C84.71 61.338 84.6965 61.2521 84.7 61.1661C84.5181 58.7092 83.485 56.3927 81.7786 54.6158C80.8028 53.6288 79.63 52.8585 78.3366 52.3551C77.0432 51.8518 75.6582 51.6266 74.272 51.6944C74.0982 51.6944 73.9316 51.6254 73.8088 51.5025C73.686 51.3797 73.6169 51.2131 73.6169 51.0393C73.6169 50.8656 73.686 50.699 73.8088 50.5762C73.9316 50.4533 74.0982 50.3843 74.272 50.3843C75.8241 50.3278 77.3709 50.5971 78.8127 51.1747C80.2545 51.7523 81.5594 52.6255 82.6432 53.738C84.5959 55.7599 85.7621 58.4128 85.9314 61.2185C85.9255 61.3789 85.8609 61.5316 85.7498 61.6476C85.6387 61.7635 85.4889 61.8346 85.3288 61.8473Z" fill="black"/>
<path d="M69.0313 72.8774C65.4392 72.7753 61.8645 72.3367 58.3543 71.5673C57.1491 71.3446 56.1141 71.1481 55.2888 71.0433C51.2276 70.5193 41.9524 72.1044 41.8607 72.1175C41.7827 72.1307 41.703 72.1307 41.6249 72.1175C41.6249 72.1175 33.7646 70.5717 27.2143 69.314L26.8082 69.2485C20.5985 68.0695 19.7994 67.9385 15.0177 68.4887C10.236 69.0389 5.00888 64.5585 4.64206 62.279C4.46341 60.5355 4.48537 58.7773 4.70755 57.0388C4.73651 56.8698 4.82813 56.718 4.96412 56.6136C5.1001 56.5091 5.27046 56.4599 5.4412 56.4755C5.52702 56.4851 5.61 56.5119 5.68521 56.5544C5.76042 56.5968 5.8263 56.654 5.87889 56.7225C5.93149 56.791 5.96973 56.8694 5.99132 56.953C6.0129 57.0366 6.01738 57.1237 6.00451 57.2091C5.82018 58.8415 5.82018 60.4895 6.00451 62.1218C6.26652 63.7332 10.9303 67.7158 14.926 67.2442C19.9042 66.6415 20.8605 66.8249 27.0964 68.004L27.5025 68.0826C33.6598 69.2485 40.8389 70.7027 41.8345 70.8599C43.0005 70.6634 51.4896 69.2747 55.5246 69.7988C56.4023 69.9036 57.4504 70.1001 58.6687 70.3359C63.2408 71.1874 70.1579 72.4975 75.9746 70.5979C82.158 68.5935 84.7257 65.8424 85.3152 65.1219L84.896 61.4799C84.8737 61.308 84.9205 61.1342 85.0261 60.9967C85.1317 60.8591 85.2875 60.7691 85.4593 60.7463C85.6327 60.7277 85.8064 60.7775 85.9434 60.8852C86.0805 60.9929 86.1701 61.1499 86.193 61.3227L86.6515 65.2529C86.6765 65.4093 86.6388 65.5694 86.5467 65.6983C86.4419 65.8424 83.9921 69.4057 76.3807 71.8817C73.9987 72.5992 71.5182 72.9352 69.0313 72.8774Z" fill="black"/>
<path d="M18.673 77.7762C15.1668 77.801 11.6636 77.5645 8.19255 77.0688C3.69906 76.2303 3.48945 71.632 3.31914 67.8984C3.31914 67.453 3.31914 67.0207 3.31914 66.5883C3.05713 62.4355 4.82571 61.5315 5.02222 61.4398C5.18236 61.3733 5.36211 61.3716 5.52346 61.4352C5.68481 61.4987 5.81512 61.6225 5.88686 61.7804C5.95459 61.9355 5.95968 62.1107 5.90107 62.2695C5.84246 62.4282 5.72469 62.5581 5.57244 62.632C5.50694 62.632 4.43269 63.3656 4.6292 66.5621C4.6292 66.9813 4.6292 67.4268 4.6292 67.8722C4.7864 71.4355 4.95672 75.1299 8.42837 75.7325C13.5638 76.702 25.1578 76.6233 26.1665 75.6277C26.4976 73.3905 26.6291 71.1283 26.5595 68.8678C26.5578 68.7824 26.5731 68.6975 26.6046 68.6181C26.6361 68.5387 26.6831 68.4664 26.7429 68.4054C26.8026 68.3444 26.874 68.296 26.9527 68.2629C27.0315 68.2298 27.116 68.2128 27.2015 68.2128C27.3741 68.2161 27.5388 68.2862 27.6609 68.4083C27.783 68.5305 27.8531 68.6951 27.8565 68.8678C27.8565 71.9202 27.7517 75.7063 27.1753 76.4399C26.4023 77.4487 22.6949 77.7762 18.673 77.7762Z" fill="black"/>
<path d="M9.08398 76.8983C8.91026 76.8983 8.74364 76.8293 8.6208 76.7064C8.49796 76.5836 8.42896 76.417 8.42896 76.2433V73.2957C8.42896 73.1219 8.49796 72.9553 8.6208 72.8325C8.74364 72.7096 8.91026 72.6406 9.08398 72.6406C9.25546 72.6406 9.4201 72.7078 9.54257 72.8278C9.66504 72.9479 9.73558 73.1111 9.73901 73.2825V76.2433C9.73901 76.417 9.66999 76.5836 9.54715 76.7064C9.42431 76.8293 9.25771 76.8983 9.08398 76.8983Z" fill="black"/>
<path d="M14.6645 77.1872C14.4908 77.1872 14.3242 77.1181 14.2014 76.9953C14.0785 76.8725 14.0095 76.7059 14.0095 76.5321V73.5845C14.0127 73.4106 14.0824 73.2445 14.2042 73.1202C14.326 72.996 14.4907 72.923 14.6645 72.9164C14.7521 72.9106 14.8398 72.9236 14.9219 72.9544C15.004 72.9853 15.0786 73.0334 15.1406 73.0954C15.2026 73.1574 15.2506 73.232 15.2815 73.3141C15.3124 73.3962 15.3254 73.4839 15.3196 73.5714V76.5321C15.3162 76.7048 15.2461 76.8695 15.124 76.9916C15.0019 77.1137 14.8372 77.1838 14.6645 77.1872Z" fill="black"/>
<path d="M21.0833 77.3206C20.9095 77.3206 20.7429 77.2516 20.6201 77.1287C20.4972 77.0059 20.4282 76.8393 20.4282 76.6655V73.7048C20.4316 73.5322 20.5017 73.3675 20.6238 73.2454C20.7459 73.1232 20.9106 73.0532 21.0833 73.0498C21.257 73.0498 21.4236 73.1188 21.5464 73.2417C21.6693 73.3645 21.7383 73.5311 21.7383 73.7048V76.6525C21.7351 76.8264 21.6654 76.9925 21.5436 77.1168C21.4218 77.241 21.2571 77.3139 21.0833 77.3206Z" fill="black"/>
<path d="M50.3894 77.7792C50.2179 77.7792 50.0533 77.712 49.9308 77.592C49.8083 77.4719 49.7378 77.3087 49.7344 77.1372V74.1765C49.7344 74.0028 49.8034 73.8362 49.9262 73.7133C50.0491 73.5905 50.2157 73.5215 50.3894 73.5215C50.5631 73.5215 50.7297 73.5905 50.8526 73.7133C50.9754 73.8362 51.0444 74.0028 51.0444 74.1765V77.1241C51.0444 77.2979 50.9754 77.4645 50.8526 77.5873C50.7297 77.7101 50.5631 77.7792 50.3894 77.7792Z" fill="black"/>
<path d="M59.0884 77.8797C58.9147 77.8797 58.748 77.8107 58.6252 77.6879C58.5024 77.565 58.4333 77.3984 58.4333 77.2247V74.2771C58.4333 74.1056 58.5005 73.941 58.6205 73.8185C58.7406 73.696 58.9038 73.6255 59.0753 73.6221C59.249 73.6221 59.4156 73.6911 59.5384 73.8139C59.6613 73.9368 59.7303 74.1034 59.7303 74.2771V77.2247C59.7303 77.3984 59.6613 77.565 59.5384 77.6879C59.4156 77.8107 59.249 77.8797 59.0753 77.8797H59.0884Z" fill="black"/>
<path d="M67.9702 77.2516C67.7997 77.2484 67.6369 77.1801 67.5152 77.0608C67.3934 76.9414 67.3218 76.78 67.3152 76.6097V74.3826C67.3152 74.2111 67.3824 74.0464 67.5024 73.924C67.6224 73.8015 67.7857 73.731 67.9571 73.7275C68.1286 73.7275 68.2932 73.7947 68.4157 73.9147C68.5382 74.0347 68.6087 74.198 68.6121 74.3695V76.5834C68.6157 76.6699 68.6017 76.7562 68.571 76.8372C68.5403 76.9181 68.4936 76.992 68.4336 77.0544C68.3737 77.1168 68.3017 77.1664 68.2221 77.2003C68.1424 77.2342 68.0568 77.2517 67.9702 77.2516Z" fill="black"/>
<path d="M78.8701 75.3793C78.6964 75.3793 78.5298 75.3103 78.407 75.1874C78.2841 75.0646 78.2151 74.898 78.2151 74.7243V72.5496C78.2151 72.3758 78.2841 72.2092 78.407 72.0864C78.5298 71.9636 78.6964 71.8945 78.8701 71.8945C79.0438 71.8945 79.2105 71.9636 79.3333 72.0864C79.4561 72.2092 79.5251 72.3758 79.5251 72.5496V74.7373C79.5217 74.9088 79.4512 75.0721 79.3287 75.1921C79.2062 75.3121 79.0416 75.3793 78.8701 75.3793Z" fill="black"/>
<path d="M53.5076 77.9228C48.4246 77.9228 43.394 77.7787 42.0054 77.3333C40.6167 76.8879 40.6953 73.5079 41.049 71.5428C41.0619 71.4568 41.0916 71.3742 41.1365 71.2996C41.1813 71.2251 41.2404 71.1601 41.3103 71.1084C41.3803 71.0567 41.4597 71.0193 41.5441 70.9983C41.6286 70.9773 41.7163 70.9732 41.8023 70.9861C41.8883 70.999 41.971 71.0287 42.0455 71.0735C42.12 71.1184 42.185 71.1774 42.2367 71.2474C42.2884 71.3173 42.3258 71.3968 42.3468 71.4812C42.3678 71.5656 42.372 71.6533 42.3591 71.7393C42.0578 73.7175 42.0971 75.8005 42.4508 76.1018C44.5731 76.7569 58.7348 76.7044 64.237 76.3769C71.8877 75.9053 83.8878 73.5865 85.3158 71.0188C85.9839 69.8005 85.7612 66.6432 85.6302 65.5428C85.6173 65.4574 85.6218 65.3703 85.6434 65.2867C85.665 65.203 85.7032 65.1246 85.7558 65.0561C85.8084 64.9876 85.8743 64.9305 85.9495 64.888C86.0247 64.8456 86.1077 64.8188 86.1935 64.8092C86.3655 64.7868 86.5392 64.8336 86.6768 64.9392C86.8143 65.0448 86.9043 65.2006 86.9271 65.3725C86.9271 65.831 87.4512 69.8398 86.4555 71.6607C84.4249 75.342 69.5165 77.3595 64.3156 77.687C62.0361 77.818 57.7522 77.9228 53.5076 77.9228Z" fill="black"/>
<path d="M9.98741 23.4756C9.8716 23.4779 9.75768 23.446 9.65989 23.3839C6.42406 21.5105 4.6555 17.1742 5.33673 14.8292C5.44617 14.3291 5.73381 13.8858 6.146 13.5821C6.55819 13.2784 7.06677 13.1349 7.57691 13.1786C7.88955 13.1922 8.19581 13.2716 8.47571 13.4116C8.75562 13.5515 9.00288 13.7489 9.20139 13.9908C11.1141 16.1262 10.6948 22.1917 10.6424 22.873C10.6302 22.9824 10.5917 23.0872 10.5301 23.1785C10.4684 23.2698 10.3857 23.3448 10.2887 23.397C10.1969 23.4492 10.093 23.4763 9.98741 23.4756ZM7.45901 14.4886C7.25393 14.477 7.05206 14.5435 6.89406 14.6748C6.73605 14.8061 6.63366 14.9923 6.60748 15.1961C6.18827 16.6502 7.21009 19.7681 9.39789 21.6022C9.46339 19.4799 9.30618 16.0607 8.23194 14.8554C8.14819 14.7493 8.04315 14.6617 7.92357 14.5986C7.804 14.5354 7.67253 14.498 7.53761 14.4886H7.45901Z" fill="black"/>
<path d="M24.673 22.6001C24.5135 22.6009 24.3594 22.5424 24.2408 22.4358C24.1221 22.3293 24.0473 22.1823 24.0311 22.0237C24.0127 21.8518 24.0629 21.6796 24.1709 21.5447C24.2789 21.4097 24.4358 21.3229 24.6075 21.3031L32.9002 20.4254C33.0713 20.4104 33.2417 20.4619 33.3759 20.5693C33.5101 20.6766 33.5978 20.8315 33.6207 21.0018C33.6297 21.0879 33.6216 21.175 33.5968 21.2579C33.572 21.3408 33.531 21.418 33.4762 21.4851C33.4214 21.5521 33.3538 21.6075 33.2774 21.6483C33.2011 21.689 33.1174 21.7142 33.0312 21.7224L24.7516 22.6001H24.673Z" fill="black"/>
<path d="M78.4771 48.8776C78.4165 48.8896 78.3542 48.8896 78.2937 48.8776L70.8787 46.6898C70.7952 46.6673 70.717 46.6281 70.649 46.5746C70.581 46.5212 70.5245 46.4545 70.4829 46.3786C70.4413 46.3028 70.4154 46.2193 70.4069 46.1332C70.3984 46.0471 70.4074 45.9601 70.4333 45.8776C70.4847 45.7132 70.5987 45.5757 70.7508 45.4948C70.9028 45.4139 71.0805 45.3961 71.2456 45.4452L78.6736 47.6199C78.8379 47.6713 78.9754 47.7854 79.0564 47.9374C79.1373 48.0894 79.1551 48.2671 79.1059 48.4322C79.0634 48.5645 78.9791 48.6794 78.8658 48.7597C78.7524 48.8401 78.616 48.8814 78.4771 48.8776Z" fill="black"/>
<path d="M50.0225 30.026C49.8488 30.0468 49.6739 29.9978 49.5363 29.8897C49.3987 29.7816 49.3097 29.6233 49.2889 29.4495C49.268 29.2758 49.3171 29.1009 49.4252 28.9633C49.5333 28.8258 49.6916 28.7368 49.8653 28.7159L56.5859 27.0783C56.6685 27.0568 56.7546 27.052 56.839 27.0642C56.9235 27.0763 57.0048 27.1052 57.0779 27.1491C57.1511 27.193 57.2148 27.2511 57.2653 27.3199C57.3158 27.3888 57.352 27.467 57.3719 27.55C57.3936 27.6334 57.3986 27.7203 57.3866 27.8057C57.3746 27.891 57.3458 27.9732 57.302 28.0474C57.2582 28.1217 57.2002 28.1865 57.1312 28.2383C57.0623 28.2901 56.9838 28.3277 56.9003 28.3491L50.1797 29.9867L50.0225 30.026Z" fill="black"/>
<path d="M68.1667 58.5065C68.0684 58.5051 67.9717 58.4821 67.8834 58.4391C67.7951 58.3961 67.7174 58.3341 67.6557 58.2576L62.1011 51.2619L54.6731 55.0611C54.5761 55.1081 54.4693 55.1309 54.3616 55.1276C54.2539 55.1243 54.1486 55.0951 54.0546 55.0423C53.9607 54.9896 53.8809 54.9149 53.8221 54.8246C53.7632 54.7344 53.7271 54.6312 53.7168 54.524L53.0879 45.9562L44.8739 41.4496C44.7655 41.3888 44.6761 41.299 44.616 41.1902C44.5558 41.0815 44.5272 40.958 44.5333 40.8339C44.5402 40.7128 44.5806 40.596 44.65 40.4966C44.7194 40.3971 44.8151 40.3189 44.9263 40.2706L54.6862 36.2094L49.446 29.8032C49.3389 29.6675 49.2898 29.4949 49.3094 29.3231C49.3291 29.1513 49.4158 28.9943 49.5508 28.8862C49.6849 28.7776 49.8565 28.7263 50.0282 28.7435C50.1999 28.7607 50.3579 28.8449 50.4678 28.9779L56.2059 36.0653C56.2689 36.143 56.3125 36.2347 56.333 36.3327C56.3536 36.4307 56.3504 36.5321 56.3238 36.6286C56.3035 36.729 56.258 36.8226 56.1915 36.9005C56.1251 36.9785 56.0398 37.0382 55.9438 37.074L46.6425 41.0042L53.9788 45.0261C54.074 45.079 54.1548 45.1545 54.2141 45.2458C54.2735 45.3371 54.3096 45.4416 54.3194 45.5501L54.8958 53.489L61.9308 49.8995C62.067 49.8336 62.2214 49.8158 62.369 49.8492C62.5165 49.8825 62.6484 49.9649 62.743 50.0829L67.7998 56.4497L70.42 45.9693C70.4384 45.8851 70.4736 45.8055 70.5234 45.7352C70.5733 45.6649 70.6368 45.6054 70.7101 45.5601C70.7835 45.5149 70.8652 45.4849 70.9504 45.4719C71.0356 45.4589 71.1225 45.4633 71.206 45.4846C71.3742 45.525 71.5196 45.6304 71.6104 45.7776C71.7012 45.9249 71.7301 46.1021 71.6907 46.2706L68.7955 58.0611C68.765 58.1798 68.7024 58.2878 68.6146 58.3733C68.5268 58.4588 68.4171 58.5184 68.2977 58.5458L68.1667 58.5065Z" fill="black"/>
<path d="M65.7696 38.5686C65.5926 38.5682 65.423 38.4975 65.298 38.3721L58.3678 31.2978C58.3064 31.2369 58.2577 31.1645 58.2244 31.0846C58.1912 31.0048 58.1741 30.9192 58.1741 30.8327C58.1741 30.7462 58.1912 30.6606 58.2244 30.5808C58.2577 30.501 58.3064 30.4285 58.3678 30.3677L71.7959 17.2671C71.854 17.2069 71.926 17.162 72.0055 17.1361L80.1934 13.6514C80.3138 13.5987 80.4474 13.5844 80.5763 13.6101C80.7051 13.6359 80.823 13.7006 80.9139 13.7955L82.4204 15.3282C82.499 15.4131 82.5546 15.5166 82.5821 15.6289C82.6096 15.7412 82.6081 15.8586 82.5776 15.9701L79.8265 25.0095C79.7906 25.1126 79.7324 25.2065 79.6562 25.2846L66.2151 38.3852C66.157 38.4441 66.0876 38.4907 66.011 38.5223C65.9345 38.5538 65.8524 38.5695 65.7696 38.5686ZM59.7565 30.8393L65.7827 36.9965L78.6344 24.42L81.2545 15.9047L80.3506 14.9745L72.6867 18.2366L59.7565 30.8393Z" fill="black"/>
<path d="M80.8217 45.1321C80.6447 45.1317 80.475 45.061 80.3501 44.9356L69.7386 34.0883C69.6192 33.9605 69.5535 33.7916 69.5552 33.6167C69.5542 33.5308 69.5711 33.4456 69.605 33.3666C69.6388 33.2877 69.6888 33.2167 69.7517 33.1582L74.7693 28.2324C74.8939 28.1115 75.0607 28.0439 75.2343 28.0439C75.4079 28.0439 75.5747 28.1115 75.6994 28.2324L86.8873 39.6561C87.0089 39.7811 87.0758 39.9494 87.0733 40.1238C87.0709 40.2983 86.9992 40.4646 86.8741 40.5862C86.7491 40.7078 86.5808 40.7747 86.4064 40.7723C86.2319 40.7698 86.0656 40.6982 85.944 40.5731L75.2278 29.621L71.1273 33.6298L81.2933 44.0054C81.3547 44.0663 81.4035 44.1388 81.4367 44.2186C81.47 44.2984 81.4871 44.384 81.4871 44.4705C81.4871 44.557 81.47 44.6426 81.4367 44.7224C81.4035 44.8022 81.3547 44.8747 81.2933 44.9356C81.1676 45.0598 80.9984 45.1303 80.8217 45.1321Z" fill="black"/>
</svg>
