<svg width="90" height="90" viewBox="0 0 90 90" fill="none" xmlns="http://www.w3.org/2000/svg">
<path d="M66.1809 69.6738C62.3006 69.6791 58.4403 69.1188 54.7217 68.0105C49.5509 66.3799 44.2426 65.2226 38.8623 64.5532C32.9573 64.1358 27.0268 64.2542 21.1432 64.9067C17.4693 65.1941 13.787 64.4694 10.496 62.8114C10.4147 62.7647 10.3435 62.7024 10.2865 62.628C7.19577 58.3849 5.44088 57.8086 5.41469 57.7955C5.30411 57.7632 5.20377 57.7027 5.12346 57.6201C5.04314 57.5375 4.98556 57.4355 4.95632 57.3241C3.88243 52.8583 5.66351 48.9556 7.71961 44.4375C8.15178 43.4945 8.59705 42.5254 9.02922 41.517C11.4258 35.9249 9.29114 22.9205 9.26494 22.7895C9.25193 22.7044 9.25586 22.6175 9.27647 22.5339C9.29709 22.4502 9.33399 22.3715 9.38508 22.3021C9.43618 22.2328 9.50045 22.1742 9.57422 22.1298C9.64799 22.0853 9.72982 22.0558 9.815 22.043C9.8994 22.0281 9.98592 22.0302 10.0695 22.0493C10.1531 22.0683 10.232 22.1039 10.3015 22.154C10.3711 22.204 10.43 22.2675 10.4746 22.3407C10.5192 22.4138 10.5488 22.4952 10.5615 22.58C10.6531 23.13 12.7878 36.0821 10.2341 42.0278C9.80189 43.0493 9.34353 44.0315 8.92445 44.9875C6.93383 49.3354 5.36229 52.8452 6.17425 56.6955C6.93383 57.0622 8.67564 58.2146 11.2687 61.7244C14.3038 63.1973 17.6738 63.8433 21.0384 63.5971C26.9956 62.929 33.0019 62.815 38.9801 63.2566C44.4527 63.9337 49.8528 65.104 55.1146 66.7533C61.0603 68.5999 70.555 69.2416 77.3781 66.2949C82.9439 63.8853 84.8298 60.8862 84.8429 60.8469C84.8876 60.773 84.9465 60.7086 85.0161 60.6574C85.0857 60.6062 85.1647 60.5691 85.2486 60.5485C85.3325 60.5278 85.4197 60.5239 85.5051 60.5369C85.5905 60.5499 85.6726 60.5796 85.7465 60.6243C85.8205 60.669 85.8849 60.7279 85.9361 60.7975C85.9873 60.8671 86.0243 60.9461 86.045 61.03C86.0657 61.1139 86.0696 61.2011 86.0566 61.2865C86.0436 61.372 86.0139 61.454 85.9692 61.5279C85.8775 61.6589 83.8869 64.9068 77.902 67.4998C74.1797 69.0011 70.194 69.7404 66.1809 69.6738Z" fill="black"/>
<path d="M34.4749 48.8281C33.9265 48.8271 33.3933 48.6479 32.9558 48.3173L24.0766 41.4942C23.7005 41.201 23.3997 40.8223 23.1993 40.3895C22.9988 39.9568 22.9045 39.4825 22.9241 39.0059L23.6968 20.9987C23.7 20.9176 23.6852 20.8368 23.6535 20.7621C23.6218 20.6874 23.574 20.6206 23.5134 20.5665C23.45 20.5155 23.3757 20.4795 23.2963 20.4613C23.2169 20.4432 23.1344 20.4433 23.0551 20.4618L10.116 23.3822C9.94238 23.4204 9.76064 23.3881 9.61083 23.2923C9.46101 23.1965 9.35538 23.0451 9.31718 22.8715C9.27897 22.6978 9.31132 22.5161 9.4071 22.3663C9.50288 22.2164 9.65426 22.1108 9.82792 22.0726L22.7669 19.1522C23.0436 19.0938 23.3299 19.0988 23.6043 19.1668C23.8788 19.2349 24.1342 19.3642 24.3516 19.545C24.5659 19.7258 24.7363 19.953 24.8497 20.2094C24.9632 20.4658 25.0167 20.7447 25.0064 21.0249L24.2337 39.0452C24.2218 39.3111 24.2739 39.5759 24.3855 39.8175C24.4972 40.059 24.6652 40.2703 24.8754 40.4334L33.7677 47.2827C33.9961 47.4549 34.2783 47.5402 34.5638 47.5234C34.8493 47.5066 35.1195 47.3888 35.3262 47.191L35.5488 46.9815C35.8863 46.6594 36.1393 46.2591 36.2855 45.816C36.4317 45.3729 36.4665 44.9006 36.3869 44.4409L32.4581 20.8678C32.3658 20.2885 32.479 19.6953 32.7779 19.1907C33.0769 18.6861 33.5428 18.3018 34.0951 18.1045L41.1016 15.6293C41.449 15.5051 41.8214 15.4676 42.1866 15.5201C42.5518 15.5726 42.8986 15.7135 43.1969 15.9305C43.4938 16.1492 43.7342 16.4356 43.8982 16.7659C44.0622 17.0961 44.1451 17.4607 44.1399 17.8295C44.0613 22.7536 44.6506 34.8545 51.7618 40.8263C51.8909 40.9422 51.9708 41.1029 51.9854 41.2757C52 41.4484 51.9482 41.6203 51.8404 41.7561C51.7264 41.888 51.5652 41.9701 51.3915 41.9847C51.2178 41.9994 51.0452 41.9456 50.9106 41.8347C43.3803 35.4962 42.7517 22.9108 42.8302 17.8033C42.834 17.6451 42.799 17.4883 42.7282 17.3468C42.6574 17.2053 42.5531 17.0832 42.4243 16.9913C42.2995 16.9002 42.1545 16.8407 42.0017 16.8179C41.8489 16.7951 41.6928 16.8096 41.5468 16.8603L34.5797 19.3224C34.32 19.4186 34.1014 19.6014 33.9606 19.8399C33.8199 20.0785 33.7657 20.3582 33.807 20.632L37.6573 44.2051C37.7669 44.8653 37.7132 45.5423 37.5009 46.1769C37.2886 46.8115 36.9241 47.3845 36.4393 47.8459L36.2691 48.0161C35.7994 48.5099 35.1558 48.8011 34.4749 48.8281Z" fill="black"/>
<path d="M85.3933 61.7908C85.2208 61.7806 85.0589 61.704 84.9417 61.577C84.8245 61.45 84.761 61.2826 84.7647 61.1098C84.5829 58.6537 83.5501 56.338 81.8442 54.5617C80.8718 53.5784 79.7037 52.8103 78.4155 52.3072C77.1273 51.8041 75.7478 51.5773 74.3664 51.6412C62.9858 51.6412 51.3826 42.2644 50.898 41.8584C50.8307 41.805 50.7748 41.7387 50.7336 41.6633C50.6924 41.5879 50.6668 41.5049 50.6582 41.4194C50.6497 41.3339 50.6584 41.2476 50.6838 41.1655C50.7093 41.0835 50.7509 41.0073 50.8064 40.9417C50.9163 40.8087 51.0742 40.7245 51.2459 40.7074C51.4175 40.6902 51.589 40.7415 51.7231 40.85C51.841 40.9417 63.5096 50.3054 74.3664 50.3316C75.9168 50.2759 77.4617 50.5441 78.9026 51.1191C80.3436 51.6941 81.6487 52.5633 82.7348 53.6712C84.6829 55.7002 85.8477 58.3547 86.0219 61.1622C86.0155 61.3268 85.9472 61.483 85.8307 61.5995C85.7141 61.716 85.558 61.7843 85.3933 61.7908Z" fill="black"/>
<path d="M69.1271 72.8169C65.5318 72.7148 61.9541 72.2764 58.4406 71.5073C57.2488 71.2846 56.2142 71.0882 55.3761 70.9834C51.3163 70.4596 42.0442 72.0442 41.9525 72.0573H41.6251C41.6251 72.0573 33.7674 70.512 27.2193 69.2678L26.8133 69.1893C20.6058 68.0106 19.82 67.8796 15.0268 68.4297C10.2336 68.9797 5.03443 64.5008 4.65464 62.2221C4.45431 60.4817 4.45431 58.724 4.65464 56.9836C4.67747 56.8118 4.76748 56.656 4.90495 56.5505C5.04243 56.4449 5.21614 56.3982 5.38803 56.4205C5.55967 56.4402 5.71656 56.527 5.8245 56.6619C5.93243 56.7969 5.98267 56.969 5.96426 57.1408C5.7446 58.7734 5.71823 60.4262 5.88569 62.0649C6.14761 63.6627 10.836 67.657 14.8042 67.1855C19.7807 66.5831 20.7367 66.7665 26.9705 67.9451L27.3896 68.0237C33.5448 69.1893 40.7215 70.6429 41.7168 70.8001C42.8823 70.6036 51.3817 69.2154 55.4154 69.7393C56.2928 69.8441 57.3405 70.0405 58.5584 70.2762C63.129 71.1406 70.0438 72.4371 75.8585 70.5513C82.0399 68.5344 84.6067 65.7842 85.2091 65.064L84.8424 61.4625C84.8321 61.3765 84.8389 61.2893 84.8622 61.2059C84.8856 61.1226 84.9252 61.0446 84.9787 60.9765C85.0322 60.9084 85.0986 60.8515 85.1741 60.809C85.2496 60.7666 85.3327 60.7394 85.4187 60.7291C85.5047 60.7188 85.5918 60.7255 85.6752 60.7489C85.7586 60.7723 85.8366 60.8118 85.9047 60.8654C85.9728 60.9189 86.0297 60.9853 86.0721 61.0607C86.1146 61.1362 86.1417 61.2194 86.1521 61.3054L86.6104 65.2342C86.6354 65.3906 86.5977 65.5506 86.5056 65.6795C86.414 65.8235 83.9519 69.3857 76.343 71.8609C74.0017 72.5512 71.5674 72.8737 69.1271 72.8169Z" fill="black"/>
<path d="M18.7333 77.7298C15.2285 77.7474 11.727 77.511 8.25639 77.0226C3.76441 76.1714 3.55487 71.5746 3.38462 67.8553C3.38462 67.41 3.38461 66.9779 3.31913 66.5457C3.05721 62.3811 4.8252 61.4906 5.02164 61.3989C5.10071 61.3642 5.18586 61.3455 5.27219 61.3439C5.35851 61.3422 5.44432 61.3577 5.52465 61.3893C5.60499 61.421 5.67826 61.4682 5.74027 61.5283C5.80229 61.5884 5.85182 61.6601 5.88599 61.7394C5.95369 61.8944 5.95877 62.0696 5.90018 62.2283C5.84159 62.387 5.72387 62.5168 5.57167 62.5906C5.57167 62.5906 4.43231 63.324 4.62875 66.5195C4.62875 66.9386 4.62875 67.3838 4.69423 67.8291C4.86448 71.4044 5.03474 75.0975 8.50522 75.6868C13.6258 76.6559 25.229 76.5773 26.2243 75.582C26.5693 73.347 26.7008 71.0843 26.6172 68.8244C26.6205 68.6518 26.6906 68.4872 26.8127 68.3651C26.9348 68.243 27.0994 68.173 27.272 68.1696C27.4457 68.1696 27.6122 68.2386 27.735 68.3614C27.8578 68.4842 27.9268 68.6508 27.9268 68.8244C27.9268 71.8758 27.8221 75.6737 27.2458 76.394C26.4732 77.4024 22.7538 77.7298 18.7333 77.7298Z" fill="black"/>
<path d="M9.14651 76.8369C8.97609 76.8337 8.81335 76.7654 8.69161 76.6461C8.56987 76.5268 8.49835 76.3655 8.4917 76.1952V73.2486C8.4917 73.0749 8.5607 72.9083 8.6835 72.7855C8.8063 72.6627 8.97284 72.5938 9.14651 72.5938C9.32017 72.5938 9.48674 72.6627 9.60954 72.7855C9.73234 72.9083 9.80132 73.0749 9.80132 73.2486V76.1952C9.80306 76.2806 9.78774 76.3654 9.75627 76.4448C9.72481 76.5242 9.67783 76.5965 9.61807 76.6574C9.55831 76.7184 9.48697 76.7669 9.40825 76.7999C9.32952 76.833 9.245 76.85 9.15962 76.85L9.14651 76.8369Z" fill="black"/>
<path d="M14.7259 77.1781C14.5522 77.1781 14.3856 77.1091 14.2628 76.9863C14.14 76.8635 14.071 76.697 14.071 76.5233V73.5767C14.071 73.403 14.14 73.2365 14.2628 73.1137C14.3856 72.9909 14.5522 72.9219 14.7259 72.9219C14.8995 72.9219 15.0661 72.9909 15.1889 73.1137C15.3117 73.2365 15.3807 73.403 15.3807 73.5767V76.5364C15.3807 76.7101 15.3117 76.8766 15.1889 76.9994C15.0661 77.1222 14.8995 77.1912 14.7259 77.1912V77.1781Z" fill="black"/>
<path d="M21.1436 77.2596C20.9699 77.2596 20.8033 77.1906 20.6805 77.0678C20.5577 76.945 20.4888 76.7784 20.4888 76.6048V73.6581C20.4887 73.4832 20.5573 73.3153 20.6797 73.1904C20.8022 73.0655 20.9687 72.9937 21.1436 72.9902C21.3162 72.9936 21.4808 73.0636 21.6029 73.1857C21.725 73.3078 21.795 73.4724 21.7984 73.645V76.6048C21.7984 76.7784 21.7294 76.945 21.6066 77.0678C21.4838 77.1906 21.3172 77.2596 21.1436 77.2596Z" fill="black"/>
<path d="M50.4519 77.7293C50.2793 77.7259 50.1147 77.6559 49.9926 77.5338C49.8705 77.4117 49.8005 77.2471 49.7971 77.0745V74.1148C49.8005 73.9422 49.8705 73.7775 49.9926 73.6555C50.1147 73.5334 50.2793 73.4633 50.4519 73.46C50.6256 73.46 50.7921 73.5289 50.9149 73.6517C51.0377 73.7745 51.1067 73.9411 51.1067 74.1148V77.0614C51.1085 77.1474 51.0932 77.2329 51.0619 77.313C51.0306 77.3931 50.9838 77.4663 50.9242 77.5283C50.8646 77.5903 50.7934 77.64 50.7146 77.6745C50.6358 77.709 50.551 77.7276 50.465 77.7293H50.4519Z" fill="black"/>
<path d="M59.1487 77.8338C58.9761 77.8305 58.8115 77.7604 58.6894 77.6383C58.5673 77.5162 58.4972 77.3516 58.4939 77.179V74.2193C58.4939 74.0456 58.5629 73.879 58.6857 73.7562C58.8085 73.6334 58.975 73.5645 59.1487 73.5645C59.3224 73.5645 59.4889 73.6334 59.6117 73.7562C59.7345 73.879 59.8035 74.0456 59.8035 74.2193V77.179C59.8052 77.265 59.79 77.3505 59.7587 77.4306C59.7274 77.5107 59.6806 77.5839 59.621 77.6459C59.5614 77.7079 59.4902 77.7576 59.4114 77.7921C59.3326 77.8266 59.2478 77.8452 59.1618 77.8469L59.1487 77.8338Z" fill="black"/>
<path d="M68.0406 77.1772C67.8692 77.1772 67.7046 77.11 67.5821 76.99C67.4597 76.8701 67.3892 76.7068 67.3858 76.5355V74.3222C67.3823 74.2358 67.3962 74.1495 67.4269 74.0686C67.4575 73.9877 67.5043 73.9138 67.5642 73.8514C67.6241 73.789 67.6961 73.7394 67.7757 73.7055C67.8553 73.6716 67.941 73.6542 68.0275 73.6543C68.1979 73.6575 68.3607 73.7258 68.4824 73.8451C68.6041 73.9644 68.6756 74.1257 68.6823 74.296V76.5224C68.684 76.6077 68.6687 76.6926 68.6373 76.772C68.6058 76.8513 68.5588 76.9236 68.4991 76.9846C68.4393 77.0456 68.368 77.094 68.2892 77.1271C68.2105 77.1602 68.126 77.1772 68.0406 77.1772Z" fill="black"/>
<path d="M78.9365 75.3336C78.7629 75.3336 78.5963 75.2646 78.4735 75.1418C78.3507 75.019 78.2817 74.8524 78.2817 74.6788V72.4917C78.2817 72.3181 78.3507 72.1515 78.4735 72.0287C78.5963 71.9059 78.7629 71.8369 78.9365 71.8369C79.1102 71.8369 79.2768 71.9059 79.3996 72.0287C79.5224 72.1515 79.5914 72.3181 79.5914 72.4917V74.6788C79.5914 74.8524 79.5224 75.019 79.3996 75.1418C79.2768 75.2646 79.1102 75.3336 78.9365 75.3336Z" fill="black"/>
<path d="M53.5688 77.8737C48.4875 77.8737 43.4586 77.7165 42.0704 77.2843C40.6822 76.8522 40.7608 73.4472 41.1144 71.4827C41.1434 71.3123 41.2374 71.1597 41.3766 71.0571C41.5158 70.9545 41.6894 70.9099 41.8608 70.9327C41.946 70.9455 42.0279 70.975 42.1016 71.0194C42.1754 71.0639 42.2397 71.1225 42.2908 71.1918C42.3419 71.2612 42.3788 71.3399 42.3994 71.4235C42.42 71.5072 42.4239 71.594 42.4109 71.6792C42.1097 73.6567 42.1621 75.739 42.5026 76.0533C44.6241 76.7081 58.7942 76.6557 64.2815 76.3152C71.9427 75.8438 83.9257 73.5258 85.3663 70.972C86.0342 69.741 85.8247 66.5979 85.6806 65.4847C85.6695 65.3987 85.6753 65.3114 85.6979 65.2276C85.7205 65.1439 85.7593 65.0655 85.8122 64.9968C85.8651 64.928 85.931 64.8704 86.0062 64.8272C86.0814 64.784 86.1643 64.7559 86.2503 64.7448C86.3363 64.7336 86.4237 64.7395 86.5074 64.762C86.5911 64.7846 86.6696 64.8235 86.7383 64.8764C86.807 64.9293 86.8646 64.9952 86.9078 65.0704C86.951 65.1455 86.9791 65.2285 86.9902 65.3145C87.0557 65.7728 87.5272 69.7802 86.5188 71.6006C84.502 75.2806 69.5854 77.3105 64.3863 77.6248C62.0944 77.7558 57.812 77.8737 53.5688 77.8737Z" fill="black"/>
<path d="M10.0508 23.485C9.93523 23.4858 9.82176 23.454 9.7234 23.3933C6.50175 21.5206 4.72066 17.1858 5.40166 14.8416C5.50832 14.3391 5.79469 13.8929 6.20703 13.5867C6.61936 13.2804 7.12931 13.1352 7.64112 13.1783C7.95365 13.192 8.25979 13.2714 8.5396 13.4113C8.81941 13.5512 9.06658 13.7485 9.26503 13.9903C11.1771 16.1381 10.758 22.2016 10.7056 22.8826C10.6982 22.9934 10.6616 23.1002 10.5994 23.1922C10.5373 23.2842 10.452 23.3581 10.352 23.4064C10.2602 23.4586 10.1564 23.4857 10.0508 23.485ZM7.57563 14.4225C7.36983 14.4135 7.16794 14.4807 7.00851 14.6111C6.84908 14.7416 6.74327 14.9262 6.71128 15.1297C6.2922 16.5964 7.3137 19.7133 9.51386 21.5468C9.51386 19.4252 9.40909 16.0071 8.3483 14.7892C8.26099 14.6838 8.15341 14.597 8.03193 14.534C7.91044 14.471 7.77755 14.4331 7.64112 14.4225H7.57563Z" fill="black"/>
<path d="M24.7448 22.5459C24.5827 22.5439 24.4269 22.483 24.3064 22.3745C24.186 22.2661 24.109 22.1176 24.09 21.9566C24.081 21.8712 24.0892 21.7849 24.1141 21.7028C24.139 21.6207 24.1802 21.5444 24.2352 21.4784C24.2901 21.4125 24.3577 21.3583 24.434 21.3189C24.5103 21.2796 24.5937 21.2559 24.6793 21.2494L32.9692 20.3589C33.1423 20.3441 33.3144 20.3974 33.4488 20.5074C33.5833 20.6174 33.6696 20.7756 33.6895 20.9482C33.6985 21.0343 33.6904 21.1213 33.6656 21.2042C33.6408 21.2871 33.5998 21.3643 33.545 21.4312C33.4902 21.4982 33.4227 21.5537 33.3463 21.5944C33.27 21.6351 33.1863 21.6603 33.1001 21.6685L24.8103 22.5459H24.7448Z" fill="black"/>
<path d="M71.9696 44.1125C71.9047 44.1252 71.838 44.1252 71.7731 44.1125C71.6088 44.0612 71.4714 43.9472 71.3905 43.7952C71.3096 43.6432 71.2918 43.4655 71.341 43.3005L73.0566 37.4597C73.0815 37.3737 73.1231 37.2934 73.1791 37.2235C73.235 37.1536 73.3042 37.0954 73.3826 37.0523C73.4611 37.0091 73.5473 36.9818 73.6362 36.9719C73.7252 36.9621 73.8153 36.9698 73.9013 36.9948C73.9873 37.0197 74.0675 37.0613 74.1374 37.1173C74.2073 37.1732 74.2655 37.2424 74.3087 37.3208C74.3518 37.3993 74.3791 37.4854 74.389 37.5744C74.3989 37.6634 74.3911 37.7535 74.3662 37.8395L72.6244 43.6542C72.5793 43.7909 72.4912 43.9095 72.3732 43.9921C72.2551 44.0747 72.1136 44.1169 71.9696 44.1125Z" fill="black"/>
<path d="M76.1075 46.0139C75.9492 46.0155 75.7956 45.9597 75.6753 45.8567C75.5454 45.7409 75.4658 45.5788 75.4536 45.4051C75.4413 45.2314 75.4974 45.0599 75.6099 44.9269L81.2674 38.4574C81.3241 38.3921 81.3932 38.3385 81.4706 38.2999C81.5481 38.2612 81.6324 38.2382 81.7188 38.2321C81.8051 38.226 81.8918 38.237 81.9739 38.2644C82.056 38.2918 82.1319 38.3352 82.1972 38.3919C82.2626 38.4487 82.3161 38.5177 82.3548 38.5952C82.3934 38.6726 82.4164 38.7569 82.4225 38.8433C82.4286 38.9296 82.4176 39.0163 82.3902 39.0984C82.3628 39.1805 82.3195 39.2564 82.2627 39.3217L76.5921 45.752C76.5346 45.8276 76.4616 45.89 76.3781 45.9352C76.2945 45.9804 76.2022 46.0072 76.1075 46.0139Z" fill="black"/>
</svg>
