<svg width="90" height="90" viewBox="0 0 90 90" fill="none" xmlns="http://www.w3.org/2000/svg">
<path d="M66.2071 68.5983C62.347 68.6135 58.5051 68.0672 54.8023 66.9765C49.6329 65.3472 44.326 64.192 38.9472 63.5252C33.0367 63.0988 27.0997 63.2161 21.2107 63.8755C17.5385 64.165 13.8576 63.4378 10.5714 61.7736C10.4881 61.7314 10.4167 61.6689 10.3638 61.5919C7.27582 57.3492 5.51125 56.7653 5.49828 56.7653C5.38801 56.7319 5.28769 56.6718 5.20622 56.5903C5.12474 56.5088 5.06463 56.4085 5.03118 56.2982C3.95428 51.8219 5.74479 47.9295 7.80778 43.4143C8.23594 42.4672 8.67709 41.494 9.10525 40.482C11.5056 34.8899 9.37773 21.8892 9.35178 21.7595C9.33689 21.6751 9.33886 21.5886 9.3576 21.505C9.37633 21.4214 9.41144 21.3423 9.4609 21.2723C9.51036 21.2024 9.5732 21.1429 9.64577 21.0974C9.71835 21.0518 9.79921 21.0211 9.88373 21.007C10.0537 20.9804 10.2273 21.0211 10.3678 21.1204C10.5083 21.2197 10.6046 21.3698 10.6363 21.5389C10.7271 22.0839 12.855 35.0456 10.2989 41.001C9.85779 42.026 9.41664 42.9991 9.00145 43.9463C7.00334 48.3058 5.42042 51.7311 6.23783 55.6236C6.99036 55.9869 8.74196 57.1416 11.3369 60.6708C14.3787 62.1373 17.7517 62.7814 21.1199 62.5391C27.0783 61.8794 33.0843 61.7621 39.0639 62.1888C44.5394 62.8703 49.9417 64.0472 55.2045 65.7049C61.1469 67.5344 70.6445 68.1831 77.4432 65.2379C83.0094 62.8245 84.8907 59.8144 84.9167 59.7884C84.9569 59.7082 85.0134 59.6371 85.0825 59.5798C85.1516 59.5225 85.2319 59.4801 85.3182 59.4554C85.4046 59.4307 85.4951 59.4242 85.5841 59.4364C85.6731 59.4485 85.7586 59.4789 85.8352 59.5258C85.9118 59.5726 85.9778 59.6349 86.0291 59.7086C86.0804 59.7823 86.1158 59.8659 86.1332 59.954C86.1505 60.0421 86.1493 60.1328 86.1298 60.2205C86.1102 60.3081 86.0727 60.3908 86.0195 60.4632C85.9417 60.5929 83.9436 63.8366 77.9622 66.4315C74.2286 67.934 70.2311 68.6709 66.2071 68.5983Z" fill="black"/>
<path d="M34.5226 47.8388C33.9745 47.8305 33.4431 47.6488 33.0046 47.3198L24.1429 40.4561C23.7668 40.165 23.4658 39.7882 23.265 39.3571C23.0641 38.926 22.9692 38.4532 22.9881 37.978L23.7666 19.9561C23.7681 19.8749 23.7514 19.7944 23.7178 19.7204C23.6841 19.6465 23.6344 19.581 23.5722 19.5288C23.5101 19.4765 23.437 19.4389 23.3584 19.4185C23.2797 19.3981 23.1976 19.3956 23.1179 19.4111L10.1431 22.3304L9.85767 21.0329L22.8324 18.1136C23.106 18.0517 23.3902 18.0536 23.663 18.1191C23.9358 18.1846 24.1899 18.3119 24.4056 18.4913C24.6213 18.6706 24.7929 18.8971 24.907 19.1534C25.0212 19.4096 25.075 19.6887 25.0641 19.969L24.2856 37.9909C24.2732 38.2576 24.3257 38.5232 24.4387 38.7651C24.5518 39.0069 24.7218 39.2177 24.9343 39.3793L33.822 46.2039C34.0467 46.3823 34.3286 46.4728 34.6152 46.4585C34.9017 46.4442 35.1732 46.326 35.379 46.1261L35.5347 45.9834C35.8933 45.663 36.1647 45.2569 36.3235 44.8031C36.4824 44.3492 36.5234 43.8625 36.4429 43.3884L32.5505 19.7744C32.4558 19.1986 32.5663 18.6077 32.8627 18.105C33.1591 17.6023 33.6226 17.2197 34.1723 17.0238L41.1398 14.5586C41.4856 14.4321 41.8572 14.3932 42.2217 14.4453C42.5862 14.4973 42.9322 14.6388 43.2287 14.857C43.5246 15.0749 43.7639 15.3607 43.9265 15.6904C44.089 16.02 44.1701 16.3838 44.1629 16.7513C44.085 21.6687 44.6689 33.7871 51.7791 39.7555C51.9097 39.8685 51.991 40.0281 52.0055 40.2003C52.0201 40.3724 51.9667 40.5434 51.8569 40.6767C51.8031 40.7425 51.7366 40.7968 51.6614 40.8364C51.5863 40.876 51.5039 40.9002 51.4192 40.9075C51.3346 40.9147 51.2493 40.9049 51.1685 40.8787C51.0876 40.8524 51.0129 40.8102 50.9487 40.7546C43.4103 34.4229 42.7875 21.8374 42.8654 16.7253C42.8701 16.5666 42.836 16.4091 42.7659 16.2666C42.6957 16.1242 42.5918 16.001 42.4632 15.9079C42.3372 15.8123 42.1889 15.7502 42.0323 15.7275C41.8757 15.7048 41.7159 15.7222 41.5679 15.7782L34.6135 18.2434C34.3528 18.3361 34.1319 18.5157 33.9878 18.7519C33.8437 18.9881 33.7852 19.2666 33.822 19.5409L37.7144 43.1549C37.8207 43.817 37.764 44.4951 37.5493 45.1303C37.3345 45.7656 36.9681 46.339 36.4818 46.8008L36.2613 47.0084C36.0421 47.2564 35.7751 47.4578 35.4764 47.6005C35.1777 47.7431 34.8533 47.8242 34.5226 47.8388Z" fill="black"/>
<path d="M85.4358 60.8123C85.3506 60.809 85.2669 60.7888 85.1894 60.7531C85.112 60.7174 85.0424 60.6668 84.9845 60.6041C84.9267 60.5414 84.8818 60.468 84.8523 60.3879C84.8229 60.3079 84.8095 60.2228 84.813 60.1376C84.619 57.7002 83.5822 55.4063 81.8807 53.6503C80.9169 52.6697 79.7589 51.9012 78.481 51.394C77.203 50.8868 75.8331 50.6521 74.4592 50.705C63.0673 50.705 51.4679 41.3243 50.9879 40.922C50.8542 40.815 50.7683 40.6594 50.7488 40.4893C50.7294 40.3192 50.778 40.1482 50.8841 40.0138C50.9971 39.884 51.1554 39.8024 51.3266 39.7855C51.4979 39.7686 51.6691 39.8178 51.8053 39.923C51.9221 40.0138 63.4825 49.3945 74.4592 49.4075C76.0084 49.3514 77.5523 49.6203 78.9914 50.1968C80.4304 50.7733 81.7329 51.6448 82.8149 52.755C84.7695 54.7735 85.9383 57.424 86.1105 60.2284C86.0941 60.3936 86.015 60.5462 85.8895 60.6548C85.764 60.7634 85.6016 60.8198 85.4358 60.8123Z" fill="black"/>
<path d="M69.0877 71.7774C65.5 71.6767 61.9296 71.2423 58.4224 70.4799C57.2158 70.2464 56.1778 70.0518 55.3474 69.948C51.2863 69.429 42.0094 71.0119 41.9185 71.0249C41.8412 71.0379 41.7623 71.0379 41.685 71.0249C41.685 71.0249 33.9002 69.4809 27.2441 68.2353L26.8289 68.1575C20.627 66.9768 19.8226 66.86 15.0479 67.392C10.2731 67.9239 5.0573 63.4995 4.66806 61.19C4.482 59.4287 4.50813 57.6514 4.7459 55.8963C4.76851 55.7261 4.85769 55.5718 4.99389 55.4672C5.13009 55.3626 5.30219 55.3163 5.47248 55.3384C5.64125 55.3642 5.79353 55.4542 5.89751 55.5896C6.00148 55.725 6.04908 55.8953 6.03039 56.065C5.81246 57.6955 5.78634 59.3459 5.95254 60.9824C6.21204 62.5913 10.883 66.5875 14.8792 66.1074C19.8615 65.5106 20.8216 65.6923 27.0625 66.873L27.4647 66.9508C33.6277 68.1185 40.8027 69.5457 41.8018 69.7274C42.9565 69.5328 51.455 68.1445 55.5031 68.6635C56.3724 68.7802 57.4234 68.9749 58.643 69.2084C63.2231 70.0647 70.1256 71.3622 75.9513 69.4679C82.1402 67.4568 84.7093 64.7062 85.3061 63.9796L84.8779 60.3337C84.8671 60.2501 84.8729 60.1652 84.8952 60.0839C84.9174 60.0026 84.9556 59.9265 85.0075 59.8601C85.0594 59.7937 85.124 59.7383 85.1976 59.6971C85.2711 59.6559 85.3521 59.6297 85.4358 59.6201C85.5211 59.6092 85.6077 59.6154 85.6906 59.6383C85.7735 59.6612 85.851 59.7004 85.9186 59.7535C85.9862 59.8066 86.0426 59.8727 86.0844 59.9478C86.1263 60.0229 86.1528 60.1055 86.1624 60.1909L86.6295 64.0834C86.6421 64.2354 86.6008 64.387 86.5127 64.5116C86.4219 64.6673 83.9178 68.2223 76.3535 70.7005C74.0017 71.4325 71.5507 71.7958 69.0877 71.7774Z" fill="black"/>
<path d="M18.7716 76.6951C15.2556 76.7186 11.7427 76.4801 8.26209 75.9815C3.77283 75.1381 3.55226 70.5451 3.38359 66.8992C3.38359 66.458 3.38359 66.0169 3.31871 65.6017C3.05922 61.4368 4.82378 60.5415 5.0184 60.4118C5.1693 60.3618 5.3333 60.369 5.47926 60.4319C5.62521 60.4949 5.74298 60.6093 5.8102 60.7533C5.87742 60.8973 5.88942 61.0611 5.84391 61.2134C5.79841 61.3657 5.69856 61.496 5.56334 61.5795C5.56334 61.5795 4.42157 62.3191 4.61619 65.4719C4.61619 65.9001 4.61619 66.3412 4.68107 66.7694C4.84974 70.3504 5.01841 74.0483 8.49564 74.697C13.6855 75.6571 25.2331 75.5922 26.2321 74.5802C26.5734 72.3484 26.708 70.0899 26.6343 67.8333C26.6326 67.7488 26.6478 67.6647 26.679 67.5861C26.7101 67.5074 26.7567 67.4358 26.8159 67.3754C26.8751 67.315 26.9458 67.267 27.0238 67.2342C27.1018 67.2015 27.1855 67.1846 27.2701 67.1846C27.4389 67.1878 27.6002 67.2554 27.7208 67.3736C27.8414 67.4918 27.9122 67.6516 27.9188 67.8204C27.9188 70.8824 27.8021 74.671 27.2312 75.3976C26.4916 76.3837 22.8457 76.6951 18.7716 76.6951Z" fill="black"/>
<path d="M9.1706 75.8094C8.99854 75.8094 8.83352 75.7411 8.71186 75.6194C8.5902 75.4977 8.52186 75.3327 8.52186 75.1607V72.2154C8.52013 72.1292 8.53562 72.0434 8.56745 71.9632C8.59928 71.883 8.64679 71.8099 8.70721 71.7483C8.76762 71.6867 8.83973 71.6377 8.9193 71.6043C8.99887 71.5709 9.0843 71.5537 9.1706 71.5537C9.34265 71.5537 9.50765 71.6221 9.62931 71.7437C9.75097 71.8654 9.81933 72.0304 9.81933 72.2024V75.1607C9.81937 75.3305 9.7528 75.4936 9.63393 75.6149C9.51506 75.7362 9.35336 75.806 9.18356 75.8094H9.1706Z" fill="black"/>
<path d="M14.7493 76.0965C14.5773 76.0965 14.4123 76.0282 14.2906 75.9065C14.1689 75.7848 14.1006 75.6198 14.1006 75.4478V72.4896C14.1006 72.3197 14.1671 72.1566 14.286 72.0354C14.4049 71.9141 14.5666 71.8442 14.7364 71.8408C14.9084 71.8408 15.0734 71.9092 15.1951 72.0308C15.3167 72.1525 15.3851 72.3175 15.3851 72.4896V75.4478C15.3851 75.6198 15.3167 75.7848 15.1951 75.9065C15.0734 76.0282 14.9084 76.0965 14.7364 76.0965H14.7493Z" fill="black"/>
<path d="M21.1724 76.2254C21.0004 76.2254 20.8353 76.1571 20.7137 76.0354C20.592 75.9138 20.5237 75.7488 20.5237 75.5767V72.6185C20.5237 72.4464 20.592 72.2814 20.7137 72.1597C20.8353 72.0381 21.0004 71.9697 21.1724 71.9697C21.3445 71.9697 21.5095 72.0381 21.6311 72.1597C21.7528 72.2814 21.8212 72.4464 21.8212 72.6185V75.5637C21.8229 75.65 21.8074 75.7358 21.7755 75.816C21.7437 75.8962 21.6962 75.9692 21.6358 76.0309C21.5754 76.0925 21.5033 76.1414 21.4237 76.1748C21.3441 76.2082 21.2587 76.2255 21.1724 76.2254Z" fill="black"/>
<path d="M50.4952 76.6922C50.3231 76.6922 50.1581 76.6239 50.0365 76.5023C49.9148 76.3806 49.8464 76.2156 49.8464 76.0435V73.0853C49.8498 72.9142 49.9192 72.7512 50.0401 72.6302C50.1611 72.5093 50.3242 72.4398 50.4952 72.4365C50.6672 72.4365 50.8322 72.5049 50.9539 72.6265C51.0756 72.7482 51.1439 72.9132 51.1439 73.0853V76.0435C51.1406 76.2145 51.0712 76.3776 50.9502 76.4986C50.8293 76.6195 50.6662 76.6889 50.4952 76.6922Z" fill="black"/>
<path d="M59.1749 76.7958C59.0028 76.7958 58.8378 76.7274 58.7161 76.6057C58.5945 76.4841 58.5261 76.3191 58.5261 76.147V73.1888C58.5261 73.0167 58.5945 72.8517 58.7161 72.73C58.8378 72.6084 59.0028 72.54 59.1749 72.54C59.3469 72.54 59.5119 72.6084 59.6336 72.73C59.7552 72.8517 59.8236 73.0167 59.8236 73.1888V76.147C59.8236 76.3191 59.7552 76.4841 59.6336 76.6057C59.5119 76.7274 59.3469 76.7958 59.1749 76.7958Z" fill="black"/>
<path d="M68.0753 76.1636C67.9065 76.1604 67.7452 76.0928 67.6246 75.9746C67.504 75.8564 67.4331 75.6966 67.4266 75.5279V73.3092C67.4231 73.2235 67.4369 73.1381 67.4673 73.0579C67.4977 72.9778 67.5439 72.9046 67.6033 72.8427C67.6627 72.7809 67.734 72.7318 67.8129 72.6982C67.8917 72.6647 67.9766 72.6474 68.0623 72.6475C68.2312 72.6506 68.3924 72.7183 68.513 72.8365C68.6336 72.9546 68.7045 73.1145 68.7111 73.2832V75.5149C68.7128 75.5994 68.6976 75.6835 68.6664 75.7622C68.6353 75.8408 68.5887 75.9124 68.5295 75.9728C68.4703 76.0332 68.3996 76.0813 68.3216 76.114C68.2436 76.1468 68.1599 76.1636 68.0753 76.1636Z" fill="black"/>
<path d="M78.9744 74.2937C78.8024 74.2937 78.6374 74.2253 78.5157 74.1036C78.394 73.982 78.3257 73.817 78.3257 73.6449V71.4651C78.3257 71.2931 78.394 71.1281 78.5157 71.0064C78.6374 70.8848 78.8024 70.8164 78.9744 70.8164C79.1465 70.8164 79.3115 70.8848 79.4332 71.0064C79.5548 71.1281 79.6232 71.2931 79.6232 71.4651V73.6449C79.6232 73.817 79.5548 73.982 79.4332 74.1036C79.3115 74.2253 79.1465 74.2937 78.9744 74.2937Z" fill="black"/>
<path d="M53.6092 76.8341C48.5101 76.8341 43.4889 76.6783 42.1006 76.2502C40.7123 75.822 40.8031 72.3578 41.1534 70.4505C41.1793 70.2784 41.2724 70.1237 41.4123 70.0203C41.5522 69.9168 41.7274 69.8732 41.8995 69.8991C42.0715 69.9249 42.2263 70.0179 42.3297 70.1579C42.4331 70.2978 42.4767 70.473 42.4509 70.6451C42.1525 72.6302 42.1914 74.7192 42.5417 75.0305C44.6696 75.6793 58.838 75.6274 64.3393 75.2901C71.9944 74.823 84.009 72.5005 85.4233 69.9315C86.0979 68.7119 85.8774 65.559 85.7347 64.4432C85.714 64.2711 85.7626 64.0979 85.8696 63.9616C85.9767 63.8254 86.1335 63.7372 86.3056 63.7166C86.4776 63.6959 86.6508 63.7445 86.7871 63.8516C86.9233 63.9586 87.0115 64.1154 87.0321 64.2875C87.0321 64.7416 87.5511 68.7508 86.565 70.5672C84.528 74.2521 69.62 76.2632 64.4172 76.5875C62.1336 76.7303 57.8779 76.8341 53.6092 76.8341Z" fill="black"/>
<path d="M10.0786 22.368C9.96575 22.3686 9.85447 22.3419 9.75419 22.2902C6.52348 20.4088 4.74594 16.0753 5.4336 13.7268C5.54704 13.2307 5.83455 12.7916 6.24399 12.4893C6.65343 12.187 7.15769 12.0414 7.66526 12.0791C7.97647 12.094 8.28122 12.1731 8.56034 12.3116C8.83946 12.45 9.08691 12.6448 9.2871 12.8835C11.1944 15.0373 10.7792 21.0965 10.7273 21.7712C10.7151 21.8812 10.677 21.9868 10.6161 22.0793C10.5552 22.1718 10.4732 22.2485 10.377 22.3032C10.2829 22.3446 10.1814 22.3667 10.0786 22.368ZM7.48361 13.3765C7.27779 13.3681 7.07616 13.4364 6.91791 13.5683C6.75966 13.7002 6.65607 13.8862 6.62728 14.0901C6.19911 15.5563 7.23709 18.6832 9.42982 20.5775C9.4947 18.4497 9.33899 15.0113 8.26209 13.8047C8.17896 13.6956 8.07342 13.6055 7.95257 13.5406C7.83171 13.4757 7.69835 13.4375 7.56146 13.4285L7.48361 13.3765Z" fill="black"/>
<path d="M24.7657 21.5008C24.6057 21.5013 24.4514 21.4415 24.3335 21.3333C24.2157 21.225 24.143 21.0764 24.1299 20.9169C24.1117 20.7467 24.1614 20.5762 24.2684 20.4425C24.3753 20.3088 24.5307 20.2229 24.7008 20.2033L32.9917 19.334C33.1637 19.3151 33.3362 19.3653 33.4713 19.4735C33.6063 19.5818 33.6928 19.7393 33.7118 19.9114C33.7307 20.0834 33.6805 20.256 33.5722 20.391C33.4639 20.526 33.3064 20.6125 33.1344 20.6315L24.8435 21.5137L24.7657 21.5008Z" fill="black"/>
<path d="M62.302 57.7352C55.2178 57.7352 49.1845 48.8735 48.925 48.4972C48.8311 48.3542 48.7975 48.1798 48.8316 48.0121C48.8656 47.8445 48.9645 47.697 49.1067 47.6019C49.1762 47.5531 49.2547 47.5187 49.3377 47.5007C49.4207 47.4828 49.5064 47.4816 49.5899 47.4973C49.6733 47.513 49.7528 47.5453 49.8236 47.5923C49.8943 47.6392 49.955 47.6998 50.0019 47.7706C50.0019 47.8614 55.9054 56.4248 62.315 56.4377C64.9183 56.4039 67.5056 56.0244 70.009 55.3089C72.9024 54.5953 75.1989 54.0114 77.7938 55.4646C77.8688 55.5055 77.935 55.5608 77.9886 55.6272C78.0422 55.6937 78.0822 55.7701 78.1063 55.852C78.1304 55.934 78.1381 56.0198 78.129 56.1047C78.1199 56.1896 78.0942 56.2719 78.0533 56.3469C78.0124 56.4219 77.9572 56.4881 77.8907 56.5417C77.8242 56.5953 77.7478 56.6353 77.6659 56.6594C77.584 56.6835 77.4981 56.6912 77.4132 56.6821C77.3283 56.673 77.246 56.6473 77.171 56.6064C74.9653 55.4127 73.0062 55.8928 70.2944 56.6064C67.6908 57.3288 65.0039 57.7083 62.302 57.7352Z" fill="black"/>
<path d="M50.5724 55.4135C50.4194 55.4155 50.2712 55.36 50.1573 55.2578C50.0906 55.2049 50.0352 55.1392 49.9943 55.0645C49.9535 54.9897 49.9281 54.9076 49.9197 54.8229C49.9112 54.7382 49.9198 54.6526 49.945 54.5713C49.9702 54.49 50.0115 54.4146 50.0664 54.3496L54.0756 49.484C54.1295 49.4183 54.1959 49.364 54.2711 49.3243C54.3463 49.2847 54.4286 49.2606 54.5133 49.2533C54.598 49.246 54.6832 49.2558 54.7641 49.2821C54.8449 49.3083 54.9196 49.3505 54.9839 49.4062C55.1156 49.5151 55.199 49.6716 55.216 49.8416C55.233 50.0117 55.1822 50.1816 55.0747 50.3144L51.0655 55.167C51.0064 55.2417 50.9317 55.3026 50.8464 55.3452C50.7612 55.3878 50.6677 55.4111 50.5724 55.4135Z" fill="black"/>
<path d="M57.6047 60.4631C57.5061 60.4619 57.4088 60.4397 57.3193 60.3982C57.2419 60.3634 57.1722 60.3134 57.1144 60.2511C57.0566 60.1888 57.0119 60.1156 56.9829 60.0358C56.9538 59.956 56.9411 59.8712 56.9454 59.7863C56.9497 59.7015 56.971 59.6184 57.0079 59.5419L59.7326 53.7163C59.7652 53.6333 59.8145 53.558 59.8774 53.4949C59.9404 53.4319 60.0157 53.3825 60.0986 53.3499C60.1815 53.3172 60.2702 53.302 60.3592 53.3051C60.4483 53.3082 60.5357 53.3296 60.6161 53.368C60.6965 53.4065 60.7681 53.461 60.8265 53.5283C60.8849 53.5956 60.9288 53.6742 60.9554 53.7593C60.9821 53.8443 60.991 53.9339 60.9815 54.0224C60.972 54.111 60.9444 54.1967 60.9003 54.2742L58.1886 60.0869C58.1357 60.1975 58.0531 60.2913 57.95 60.3578C57.8469 60.4242 57.7274 60.4607 57.6047 60.4631Z" fill="black"/>
<path d="M68.6992 59.1637C68.5294 59.1637 68.3663 59.0971 68.245 58.9783C68.1237 58.8594 68.0539 58.6977 68.0505 58.5279L67.9337 53.9608C67.932 53.8756 67.9471 53.7909 67.9781 53.7115C68.0091 53.6322 68.0555 53.5597 68.1145 53.4982C68.1736 53.4368 68.2441 53.3876 68.3222 53.3534C68.4003 53.3192 68.4843 53.3008 68.5695 53.2991C68.6556 53.2937 68.7419 53.3062 68.8229 53.3359C68.9039 53.3656 68.9778 53.4118 69.0401 53.4716C69.1023 53.5313 69.1514 53.6034 69.1843 53.6831C69.2172 53.7629 69.2332 53.8486 69.2312 53.9349L69.348 58.489C69.3515 58.6623 69.2869 58.8301 69.168 58.9563C69.0491 59.0825 68.8854 59.1569 68.7122 59.1637H68.6992Z" fill="black"/>
<path d="M74.9782 59.1359C74.8128 59.1327 74.6549 59.0664 74.5367 58.9507C74.4186 58.8349 74.3491 58.6784 74.3425 58.5131L74.1089 53.8292C74.1055 53.744 74.1188 53.6589 74.1483 53.5789C74.1777 53.4988 74.2226 53.4254 74.2804 53.3627C74.3383 53.3 74.4079 53.2494 74.4854 53.2137C74.5628 53.1779 74.6465 53.1579 74.7317 53.1545C74.8167 53.1474 74.9022 53.1578 74.983 53.1851C75.0638 53.2124 75.1381 53.2559 75.2013 53.3131C75.2646 53.3703 75.3154 53.4398 75.3507 53.5174C75.386 53.595 75.4049 53.6791 75.4064 53.7643L75.627 58.4612C75.6322 58.5457 75.6205 58.6305 75.5926 58.7105C75.5646 58.7905 75.5209 58.8641 75.4641 58.9269C75.4073 58.9898 75.3385 59.0406 75.2617 59.0765C75.185 59.1124 75.1018 59.1326 75.0172 59.1359H74.9782Z" fill="black"/>
<path d="M67.3229 45.1226C67.2377 45.1209 67.1537 45.1024 67.0756 45.0683C66.9976 45.0341 66.927 44.9849 66.868 44.9234C66.8089 44.862 66.7626 44.7895 66.7315 44.7102C66.7005 44.6308 66.6854 44.5461 66.6871 44.4609V38.5703C66.6905 38.4005 66.7604 38.2388 66.8817 38.12C67.003 38.0011 67.1661 37.9345 67.3359 37.9346C67.5079 37.9346 67.673 38.0029 67.7946 38.1246C67.9163 38.2463 67.9846 38.4113 67.9846 38.5833V44.4739C67.9846 44.5601 67.9674 44.6456 67.934 44.7251C67.9006 44.8047 67.8517 44.8768 67.79 44.9372C67.7284 44.9977 67.6554 45.0451 67.5752 45.077C67.4949 45.1088 67.4092 45.1243 67.3229 45.1226Z" fill="black"/>
<path d="M72.3575 46.5409C72.2447 46.5415 72.1334 46.5148 72.0331 46.4631C71.9578 46.4226 71.8915 46.3672 71.838 46.3004C71.7846 46.2336 71.7452 46.1568 71.7222 46.0744C71.6992 45.992 71.693 45.9059 71.7041 45.821C71.7151 45.7362 71.7432 45.6545 71.7866 45.5808L74.3167 41.0397C74.401 40.8882 74.542 40.7765 74.7086 40.7291C74.8753 40.6816 75.054 40.7023 75.2054 40.7866C75.3568 40.8709 75.4686 41.012 75.516 41.1786C75.5635 41.3453 75.5428 41.524 75.4585 41.6754L72.8635 46.2166C72.8116 46.3074 72.7384 46.3844 72.6503 46.4409C72.5622 46.4974 72.4617 46.5317 72.3575 46.5409Z" fill="black"/>
</svg>
