<svg width="90" height="90" viewBox="0 0 90 90" fill="none" xmlns="http://www.w3.org/2000/svg">
<path d="M71.6644 74.2778H71.5621C64.7656 74.2778 55.7329 72.2608 50.8365 68.0075C47.134 64.73 43.1421 61.7948 38.9098 59.2379C34.1352 56.7323 29.1397 54.6725 23.9868 53.0845C20.7945 51.9577 17.9698 49.9819 15.8164 47.3696C15.758 47.2847 15.7136 47.1909 15.6849 47.0919C14.691 42.4732 13.4632 41.3624 13.4486 41.3478C13.3539 41.2626 13.2817 41.1553 13.2383 41.0354C13.195 40.9156 13.1819 40.787 13.2001 40.6608C13.9602 36.4807 16.898 33.879 20.2889 30.8535C20.9905 30.225 21.7505 29.5819 22.4521 28.8949C26.53 25.2117 29.5263 13.5188 29.5555 13.5188C29.604 13.325 29.7274 13.1584 29.8988 13.0556C30.0701 12.9528 30.2752 12.9223 30.469 12.9707C30.6628 13.0192 30.8295 13.1427 30.9323 13.314C31.0351 13.4853 31.0656 13.6904 31.0171 13.8842C30.8856 14.3812 27.8893 26.0009 23.5483 30.0496C22.8029 30.7365 22.0867 31.3943 21.3559 32.0228C18.1258 34.946 15.5095 37.1676 14.7933 40.6316C16.0291 42.4455 16.8432 44.5131 17.1757 46.6827C19.1255 48.9875 21.6452 50.7412 24.4837 51.769C29.7037 53.4139 34.7623 55.5323 39.5967 58.0978C43.9142 60.653 47.9852 63.6035 51.7573 66.9113C56.3467 70.9015 65.2333 72.7577 71.5474 72.7577C75.5283 72.5232 79.3894 71.3081 82.7872 69.2206C82.9519 69.116 83.1515 69.081 83.342 69.1235C83.5325 69.166 83.6983 69.2824 83.803 69.4472C83.9077 69.6119 83.9426 69.8115 83.9001 70.002C83.8576 70.1925 83.7412 70.3583 83.5765 70.463C79.9791 72.6931 75.888 74.0032 71.6644 74.2778Z" fill="black"/>
<path d="M57.7792 45.1053C57.6429 45.1023 57.51 45.0627 57.3943 44.9907C57.2785 44.9187 57.1843 44.817 57.1215 44.696C53.2044 36.7011 57.2676 26.0606 59.1969 21.8658C59.2688 21.7255 59.3062 21.5702 59.3062 21.4127C59.3062 21.2551 59.2688 21.0998 59.1969 20.9596C59.119 20.8234 59.0091 20.7084 58.8766 20.6243C58.7442 20.5403 58.5933 20.4898 58.4369 20.4772L52.2836 20.0241C52.0013 20.0034 51.7206 20.0809 51.4889 20.2433C51.2572 20.4058 51.0887 20.6433 51.012 20.9157L45.6332 41.6559C45.4668 42.3232 45.1382 42.9391 44.6768 43.449C44.2153 43.9589 43.6351 44.3471 42.9877 44.5791C42.4132 44.7892 41.7822 44.7852 41.2104 44.5677C40.6385 44.3503 40.1643 43.934 39.8745 43.3952L35.1243 34.6256C34.8898 34.174 34.7675 33.6727 34.7675 33.164C34.7675 32.6552 34.8898 32.1539 35.1243 31.7024L42.2423 17.3202C42.3001 17.1747 42.3001 17.0126 42.2423 16.8671C42.2055 16.7968 42.1537 16.7355 42.0905 16.6875C42.0274 16.6395 41.9545 16.606 41.8769 16.5894L30.1841 14.3093L30.4618 12.8477L42.1546 15.1424C42.4522 15.2024 42.732 15.3298 42.9727 15.5147C43.2134 15.6997 43.4085 15.9373 43.5432 16.2093C43.6805 16.4787 43.752 16.7767 43.752 17.079C43.752 17.3813 43.6805 17.6793 43.5432 17.9487L36.4398 32.3455C36.3142 32.587 36.2487 32.8552 36.2487 33.1274C36.2487 33.3996 36.3142 33.6678 36.4398 33.9094L41.19 42.679C41.3147 42.9121 41.5195 43.0922 41.7666 43.1863C42.0137 43.2803 42.2865 43.2818 42.5346 43.1906C42.9407 43.0296 43.3017 42.7727 43.5868 42.4418C43.8718 42.1109 44.0725 41.7159 44.1716 41.2905L49.565 20.5503C49.7261 19.9487 50.091 19.4216 50.5975 19.059C51.1039 18.6965 51.7205 18.521 52.342 18.5625L58.4954 19.0302C58.8891 19.0547 59.2705 19.1772 59.6048 19.3865C59.9392 19.5958 60.216 19.8853 60.4101 20.2288C60.6114 20.566 60.7273 20.9474 60.7477 21.3397C60.768 21.732 60.6923 22.1233 60.527 22.4796C58.6854 26.4844 54.7975 36.6134 58.4369 44.0529C58.5187 44.2279 58.5293 44.4278 58.4666 44.6104C58.4039 44.7931 58.2727 44.9443 58.1007 45.0322C57.9999 45.0789 57.8903 45.1038 57.7792 45.1053Z" fill="black"/>
<path d="M83.1379 70.5935C83.0655 70.6077 82.9911 70.6077 82.9187 70.5935C82.7353 70.5362 82.5819 70.409 82.4916 70.2394C82.4013 70.0698 82.3815 69.8714 82.4364 69.6873C82.8444 67.4817 82.4724 65.2029 81.384 63.2416C80.7728 62.1886 79.949 61.2744 78.9651 60.5572C77.9812 59.8401 76.8587 59.3356 75.6691 59.076C61.74 55.539 57.3113 45.1908 57.136 44.7523C57.083 44.5785 57.0967 44.3912 57.1744 44.227C57.2521 44.0627 57.3881 43.9333 57.5561 43.8639C57.724 43.7946 57.9117 43.7903 58.0827 43.8518C58.2536 43.9134 58.3955 44.0364 58.4806 44.1969C58.4806 44.2846 62.8655 54.3112 76.0199 57.6583C77.4073 57.959 78.7161 58.5477 79.8616 59.3861C81.0072 60.2245 81.964 61.294 82.6702 62.5254C83.9514 64.8339 84.366 67.524 83.8395 70.1112C83.7895 70.256 83.6944 70.3811 83.5682 70.4679C83.4419 70.5547 83.2911 70.5987 83.1379 70.5935Z" fill="black"/>
<path d="M70.7575 77.4642C69.9275 77.463 69.0982 77.4191 68.2727 77.3327C60.6432 76.558 53.1305 72.4217 50.2658 70.6824C47.0941 68.7677 38.7922 66.6776 38.7045 66.663C38.6199 66.639 38.5405 66.5993 38.4706 66.546C38.4706 66.546 32.5219 62.3805 27.4647 58.9018L27.1432 58.6826C22.4222 55.4378 21.8083 55.014 17.6427 53.7424C13.4772 52.4708 10.5978 46.9167 11.1971 44.5781C11.6972 43.0433 12.3741 41.5718 13.2141 40.1933C13.264 40.1108 13.3296 40.0389 13.4073 39.9817C13.485 39.9246 13.5732 39.8833 13.6669 39.8602C13.7605 39.8371 13.8578 39.8327 13.9531 39.8472C14.0485 39.8618 14.14 39.8949 14.2226 39.9448C14.3051 39.9947 14.377 40.0604 14.4342 40.1381C14.4913 40.2158 14.5326 40.304 14.5557 40.3976C14.5787 40.4913 14.5831 40.5885 14.5686 40.6839C14.5541 40.7792 14.521 40.8708 14.4711 40.9533C13.7035 42.2244 13.0808 43.5775 12.6148 44.9874C12.2494 46.449 14.6318 51.3161 18.0812 52.2954C22.466 53.6401 23.1968 54.1516 27.9617 57.4402L28.2832 57.6595C32.9457 60.8604 38.3683 64.646 39.2014 65.2306C40.3268 65.5229 47.8395 67.4815 51.0112 69.3962C53.189 70.7116 60.8916 75.0672 68.4189 75.8419C72.6784 76.1949 76.9609 75.5337 80.9156 73.9125L82.6257 69.7323C82.6609 69.6431 82.7137 69.5618 82.781 69.4934C82.8482 69.4249 82.9286 69.3707 83.0172 69.3338C83.1058 69.297 83.2009 69.2784 83.2968 69.2791C83.3928 69.2797 83.4877 69.2997 83.5758 69.3377C83.665 69.3729 83.7463 69.4257 83.8147 69.493C83.8832 69.5602 83.9374 69.6405 83.9743 69.7292C84.0111 69.8178 84.0297 69.9129 84.029 70.0088C84.0284 70.1048 84.0084 70.1996 83.9704 70.2877L82.1434 74.6726C82.0804 74.8401 81.9546 74.9764 81.7926 75.0526C78.3134 76.5892 74.5604 77.4094 70.7575 77.4642Z" fill="black"/>
<path d="M24.206 65.0128C20.9028 65.0128 11.0516 59.9264 8.75687 58.3479C5.2344 55.9363 6.76909 51.9607 8.01146 48.7744C8.15762 48.3944 8.30377 48.029 8.43531 47.6636C9.77999 44.0388 11.6509 43.9219 11.8701 43.9219C12.0639 43.9219 12.2498 43.9989 12.3868 44.1359C12.5239 44.273 12.6009 44.4589 12.6009 44.6527C12.6009 44.8465 12.5239 45.0324 12.3868 45.1694C12.2498 45.3065 12.0639 45.3835 11.8701 45.3835C11.8701 45.3835 10.7154 45.6027 9.77999 48.1751C9.64844 48.5405 9.50228 48.9206 9.3415 49.3006C7.96759 52.8669 7.17834 55.5124 9.56076 57.1494C13.3463 59.7511 22.9783 63.9312 24.1768 63.5658C25.2285 61.8378 26.1424 60.0296 26.91 58.1579C26.9875 57.9796 27.1327 57.8394 27.3136 57.7681C27.4945 57.6968 27.6964 57.7004 27.8747 57.7779C28.053 57.8554 28.1932 58.0006 28.2645 58.1815C28.3357 58.3624 28.3322 58.5642 28.2547 58.7426C26.6177 62.4696 25.463 64.589 24.8345 64.8667C24.6367 64.9562 24.4231 65.0059 24.206 65.0128Z" fill="black"/>
<path d="M9.91161 58.6068C9.81541 58.6288 9.7155 58.6288 9.6193 58.6068C9.5295 58.5703 9.44805 58.516 9.37988 58.447C9.31171 58.3781 9.25823 58.2961 9.22269 58.2059C9.18716 58.1157 9.17031 58.0192 9.17316 57.9223C9.17601 57.8254 9.19852 57.7301 9.23929 57.6422L10.3063 55.1867C10.3444 55.0982 10.3996 55.0181 10.4689 54.9511C10.5381 54.884 10.6199 54.8313 10.7095 54.796C10.7992 54.7607 10.8949 54.7434 10.9913 54.7452C11.0876 54.7471 11.1827 54.768 11.2709 54.8067C11.3594 54.8448 11.4395 54.9001 11.5065 54.9693C11.5736 55.0385 11.6263 55.1203 11.6616 55.2099C11.6969 55.2996 11.7142 55.3953 11.7123 55.4917C11.7105 55.588 11.6896 55.6831 11.6509 55.7713L10.5694 58.2268C10.5064 58.3455 10.4113 58.444 10.295 58.5112C10.1787 58.5784 10.0458 58.6115 9.91161 58.6068Z" fill="black"/>
<path d="M14.443 60.902C14.3467 60.9225 14.2471 60.9225 14.1507 60.902C13.9746 60.8219 13.8364 60.6765 13.7655 60.4965C13.6946 60.3165 13.6964 60.116 13.7707 59.9373L14.8523 57.4672C14.8907 57.3789 14.9461 57.299 15.0153 57.2321C15.0846 57.1653 15.1663 57.1127 15.2559 57.0774C15.3455 57.0421 15.4411 57.0248 15.5374 57.0265C15.6336 57.0282 15.7286 57.0488 15.8169 57.0872C15.9052 57.1256 15.9851 57.181 16.052 57.2502C16.1189 57.3195 16.1714 57.4012 16.2067 57.4908C16.242 57.5804 16.2593 57.676 16.2576 57.7723C16.2559 57.8685 16.2353 57.9635 16.1969 58.0518L15.1153 60.5219C15.05 60.6418 14.9523 60.7409 14.8335 60.808C14.7147 60.8752 14.5794 60.9077 14.443 60.902Z" fill="black"/>
<path d="M19.7482 63.3759C19.6518 63.3965 19.5522 63.3965 19.4559 63.3759C19.2797 63.2959 19.1416 63.1505 19.0707 62.9705C18.9998 62.7905 19.0016 62.5899 19.0758 62.4113L20.1574 59.9412C20.1883 59.8432 20.2394 59.7528 20.3075 59.676C20.3756 59.5991 20.4591 59.5374 20.5526 59.495C20.6461 59.4525 20.7475 59.4303 20.8502 59.4297C20.9529 59.4291 21.0546 59.4502 21.1486 59.4915C21.2426 59.5328 21.3269 59.5935 21.3959 59.6695C21.4649 59.7456 21.517 59.8354 21.549 59.933C21.581 60.0306 21.592 60.1338 21.5814 60.2359C21.5708 60.3381 21.5388 60.4369 21.4875 60.5258L20.4205 62.9959C20.3551 63.1157 20.2575 63.2148 20.1387 63.282C20.0198 63.3492 19.8846 63.3817 19.7482 63.3759Z" fill="black"/>
<path d="M44.0109 74.5595C43.9145 74.5801 43.8149 74.5801 43.7186 74.5595C43.5424 74.4795 43.4043 74.3341 43.3334 74.1541C43.2625 73.9741 43.2643 73.7735 43.3385 73.5949L44.4201 71.1248C44.4509 71.0268 44.5021 70.9364 44.5702 70.8595C44.6383 70.7827 44.7218 70.721 44.8153 70.6786C44.9088 70.6361 45.0102 70.6139 45.1129 70.6133C45.2156 70.6127 45.3173 70.6337 45.4113 70.6751C45.5053 70.7164 45.5896 70.7771 45.6586 70.8531C45.7276 70.9292 45.7797 71.019 45.8117 71.1166C45.8437 71.2141 45.8547 71.3174 45.8441 71.4195C45.8335 71.5217 45.8015 71.6204 45.7502 71.7094L44.6832 74.1795C44.6178 74.2993 44.5202 74.3984 44.4013 74.4656C44.2825 74.5327 44.1472 74.5653 44.0109 74.5595Z" fill="black"/>
<path d="M51.4065 77.5216C51.3151 77.5423 51.2202 77.5423 51.1288 77.5216C51.0396 77.4864 50.9583 77.4336 50.8898 77.3663C50.8214 77.2991 50.7671 77.2188 50.7303 77.1302C50.6935 77.0415 50.6749 76.9464 50.6756 76.8505C50.6762 76.7545 50.6962 76.6597 50.7342 76.5716L51.6258 74.423C51.7031 74.2478 51.8449 74.109 52.0218 74.0355C52.1987 73.9621 52.3971 73.9595 52.5758 74.0284C52.6651 74.0636 52.7463 74.1164 52.8148 74.1837C52.8832 74.2509 52.9375 74.3312 52.9743 74.4198C53.0111 74.5085 53.0297 74.6036 53.0291 74.6995C53.0284 74.7955 53.0085 74.8903 52.9704 74.9784L52.0789 77.127C52.0155 77.2495 51.9187 77.3516 51.7997 77.4214C51.6807 77.4913 51.5444 77.526 51.4065 77.5216Z" fill="black"/>
<path d="M59.6793 80.2586H59.46C59.2756 80.1981 59.122 80.0681 59.0319 79.8961C58.9418 79.7242 58.9224 79.5239 58.9777 79.3378L59.65 77.16C59.6767 77.0681 59.7216 76.9825 59.7819 76.9082C59.8422 76.8339 59.9168 76.7725 60.0013 76.7275C60.0858 76.6826 60.1784 76.655 60.2737 76.6464C60.369 76.6379 60.4651 76.6485 60.5562 76.6777C60.7396 76.735 60.893 76.8622 60.9833 77.0318C61.0736 77.2014 61.0934 77.3997 61.0386 77.5839L60.3808 79.7763C60.3271 79.9187 60.2311 80.0412 60.1057 80.1274C59.9803 80.2137 59.8315 80.2594 59.6793 80.2586Z" fill="black"/>
<path d="M69.2086 81.6438C69.1117 81.6576 69.0133 81.6576 68.9163 81.6438C68.7402 81.5638 68.602 81.4184 68.5311 81.2384C68.4602 81.0584 68.4621 80.8578 68.5363 80.6792L69.2817 78.9837C69.3645 78.81 69.5102 78.6742 69.6892 78.6037C69.8682 78.5331 70.0673 78.5331 70.2464 78.6037C70.4225 78.6837 70.5607 78.8291 70.6316 79.0091C70.7025 79.1891 70.7006 79.3897 70.6264 79.5684L69.881 81.2638C69.8156 81.3836 69.7179 81.4827 69.5991 81.5499C69.4803 81.6171 69.345 81.6496 69.2086 81.6438Z" fill="black"/>
<path d="M72.5706 82.2112C66.7378 82.1554 60.9418 81.2796 55.3529 79.6096C51.0704 78.0164 38.6906 72.6962 36.8636 71.0884C35.7527 70.1091 36.9659 67.639 38.179 65.7243C38.2296 65.6443 38.2954 65.5751 38.3729 65.5207C38.4503 65.4663 38.5378 65.4278 38.6302 65.4074C38.7227 65.387 38.8182 65.3852 38.9113 65.4019C39.0045 65.4187 39.0934 65.4538 39.1729 65.5051C39.2561 65.5544 39.3285 65.6201 39.3856 65.6982C39.4428 65.7763 39.4835 65.8651 39.5053 65.9594C39.5272 66.0536 39.5297 66.1513 39.5128 66.2466C39.4958 66.3418 39.4598 66.4327 39.4068 66.5136C38.6515 67.5686 38.1512 68.7843 37.9452 70.0653C39.4068 71.3369 51.2165 76.4964 55.9229 78.2357C61.5209 80.3111 75.5084 81.6997 77.7593 79.9896C79.0888 78.3527 80.145 76.5117 80.8871 74.5378C80.9671 74.3617 81.1126 74.2235 81.2926 74.1526C81.4726 74.0817 81.6731 74.0835 81.8518 74.1578C82.0269 74.2349 82.1647 74.3776 82.2358 74.5552C82.3069 74.7328 82.3054 74.9312 82.2318 75.1078C82.0272 75.6048 80.1417 80.0042 78.6362 81.1443C77.5985 81.8312 75.3476 82.2112 72.5706 82.2112Z" fill="black"/>
<path d="M30.3302 14.411C30.2145 14.4121 30.1001 14.3863 29.9961 14.3356C29.8921 14.2848 29.8013 14.2106 29.731 14.1187C27.6993 11.3124 27.8309 6.95679 29.2925 5.21748C29.5897 4.82288 30.0179 4.54722 30.5001 4.44005C30.9824 4.33289 31.487 4.40124 31.9234 4.63284C32.1959 4.76758 32.4371 4.95829 32.631 5.19251C32.8249 5.42672 32.9673 5.69919 33.0488 5.99213C33.8673 8.53533 31.2656 13.4756 30.9733 14.031C30.9139 14.14 30.8278 14.2321 30.7229 14.2986C30.6181 14.3651 30.498 14.4038 30.3741 14.411H30.3302ZM30.9441 5.84597C30.8351 5.85377 30.7295 5.8869 30.6356 5.94273C30.5417 5.99855 30.4622 6.07553 30.4033 6.16753C29.9197 7.083 29.656 8.09856 29.6332 9.13367C29.6103 10.1688 29.829 11.195 30.2718 12.1309C31.1633 10.2016 32.0403 7.62914 31.6603 6.43062C31.6367 6.32708 31.5903 6.23008 31.5246 6.14666C31.4589 6.06324 31.3754 5.99548 31.2803 5.94829C31.1771 5.88981 31.0623 5.85487 30.9441 5.84597Z" fill="black"/>
<path d="M50.1202 21.4136H49.9009L42.666 19.0897C42.4722 19.0296 42.3102 18.895 42.2156 18.7154C42.121 18.5359 42.1017 18.3261 42.1617 18.1323C42.2218 17.9385 42.3565 17.7765 42.536 17.6819C42.7155 17.5874 42.9253 17.568 43.1191 17.6281L50.2956 19.9812C50.4774 20.0446 50.6276 20.1759 50.7148 20.3475C50.8019 20.5192 50.8193 20.7179 50.7633 20.9021C50.7216 21.043 50.6375 21.1677 50.5224 21.2593C50.4074 21.3508 50.2669 21.4047 50.1202 21.4136Z" fill="black"/>
</svg>
