<svg width="16" height="18" viewBox="0 0 16 18" fill="none" xmlns="http://www.w3.org/2000/svg">
<g clip-path="url(#clip0_1140_25475)">
<path fill-rule="evenodd" clip-rule="evenodd" d="M7.05232 10.9482C6.08281 9.97875 5.35195 8.8933 4.86636 7.7921C4.76361 7.55926 4.8241 7.28665 5.00392 7.10685L5.68258 6.42906C6.2386 5.87307 6.2386 5.08674 5.75301 4.60118L4.78018 3.62841C4.13301 2.98128 3.08395 2.98128 2.43678 3.62841L1.8965 4.16866C1.28248 4.78265 1.02643 5.66841 1.19216 6.54672C1.60151 8.71183 2.85939 11.0824 4.88873 13.1117C6.91808 15.1409 9.28883 16.3987 11.4541 16.808C12.3324 16.9737 13.2183 16.7177 13.8323 16.1037L14.3717 15.5643C15.0189 14.9172 15.0189 13.8682 14.3717 13.221L13.3997 12.2491C12.9141 11.7635 12.1269 11.7635 11.6422 12.2491L10.8939 12.9981C10.7141 13.178 10.4415 13.2384 10.2086 13.1357C9.10736 12.6493 8.02184 11.9177 7.05232 10.9482Z" stroke="#BEBEBE" stroke-width="1.14286" stroke-linecap="round" stroke-linejoin="round"/>
</g>
<defs>
<clipPath id="clip0_1140_25475">
<rect width="16" height="16" fill="white" transform="translate(0 2)"/>
</clipPath>
</defs>
</svg>
