<svg width="298" height="71" viewBox="0 0 298 71" fill="none" xmlns="http://www.w3.org/2000/svg">
<mask id="path-1-inside-1_1135_22219" fill="white">
<path fill-rule="evenodd" clip-rule="evenodd" d="M150.571 0.995975C149.771 -0.021119 148.229 -0.0211195 147.429 0.995974L139.554 10.998H30C13.4315 10.998 0 24.4295 0 40.998C0 57.5666 13.4314 70.998 30 70.998H268C284.569 70.998 298 57.5666 298 40.998C298 24.4295 284.569 10.998 268 10.998H158.446L150.571 0.995975Z"/>
</mask>
<path d="M147.429 0.995974L148.214 1.61456V1.61456L147.429 0.995974ZM150.571 0.995975L149.786 1.61456V1.61456L150.571 0.995975ZM139.554 10.998V11.998H140.039L140.34 11.6166L139.554 10.998ZM158.446 10.998L157.66 11.6166L157.961 11.998H158.446V10.998ZM148.214 1.61456C148.615 1.10602 149.385 1.10602 149.786 1.61456L151.357 0.377387C150.156 -1.14826 147.844 -1.14826 146.643 0.377386L148.214 1.61456ZM140.34 11.6166L148.214 1.61456L146.643 0.377385L138.768 10.3794L140.34 11.6166ZM30 11.998H139.554V9.99804H30V11.998ZM1 40.998C1 24.9818 13.9837 11.998 30 11.998V9.99804C12.8792 9.99804 -1 23.8772 -1 40.998H1ZM30 69.998C13.9837 69.998 1 57.0143 1 40.998H-1C-1 58.1189 12.8792 71.998 30 71.998V69.998ZM268 69.998H30V71.998H268V69.998ZM297 40.998C297 57.0143 284.016 69.998 268 69.998V71.998C285.121 71.998 299 58.1189 299 40.998H297ZM268 11.998C284.016 11.998 297 24.9818 297 40.998H299C299 23.8772 285.121 9.99804 268 9.99804V11.998ZM158.446 11.998H268V9.99804H158.446V11.998ZM149.786 1.61456L157.66 11.6166L159.232 10.3794L151.357 0.377386L149.786 1.61456Z" fill="white" mask="url(#path-1-inside-1_1135_22219)"/>
</svg>
