<svg width="275" height="58" viewBox="0 0 275 58" fill="none" xmlns="http://www.w3.org/2000/svg">
<mask id="path-1-inside-1_1135_11510" fill="white">
<path fill-rule="evenodd" clip-rule="evenodd" d="M25 0C11.1929 0 0 11.1929 0 25C0 38.8071 11.1929 50 25 50H25.2375L30.3047 56.8335C31.1043 57.9118 32.7181 57.9118 33.5177 56.8335L38.5849 50H250C263.807 50 275 38.8071 275 25C275 11.1929 263.807 0 250 0H25Z"/>
</mask>
<path fill-rule="evenodd" clip-rule="evenodd" d="M25 0C11.1929 0 0 11.1929 0 25C0 38.8071 11.1929 50 25 50H25.2375L30.3047 56.8335C31.1043 57.9118 32.7181 57.9118 33.5177 56.8335L38.5849 50H250C263.807 50 275 38.8071 275 25C275 11.1929 263.807 0 250 0H25Z" fill="black"/>
<path d="M25.2375 50L26.0407 49.4044L25.7409 49H25.2375V50ZM30.3047 56.8335L29.5014 57.4291L30.3047 56.8335ZM33.5177 56.8335L34.321 57.4291L33.5177 56.8335ZM38.5849 50V49H38.0815L37.7816 49.4044L38.5849 50ZM1 25C1 11.7452 11.7452 1 25 1V-1C10.6406 -1 -1 10.6406 -1 25H1ZM25 49C11.7452 49 1 38.2548 1 25H-1C-1 39.3594 10.6406 51 25 51V49ZM25.2375 49H25V51H25.2375V49ZM31.1079 56.2379L26.0407 49.4044L24.4342 50.5956L29.5014 57.4291L31.1079 56.2379ZM32.7144 56.2379C32.3146 56.777 31.5077 56.777 31.1079 56.2379L29.5014 57.4291C30.7008 59.0466 33.1216 59.0466 34.321 57.4291L32.7144 56.2379ZM37.7816 49.4044L32.7144 56.2379L34.321 57.4291L39.3881 50.5956L37.7816 49.4044ZM250 49H38.5849V51H250V49ZM274 25C274 38.2548 263.255 49 250 49V51C264.359 51 276 39.3594 276 25H274ZM250 1C263.255 1 274 11.7452 274 25H276C276 10.6406 264.359 -1 250 -1V1ZM25 1H250V-1H25V1Z" fill="white" mask="url(#path-1-inside-1_1135_11510)"/>
</svg>
