<svg width="256" height="59" viewBox="0 0 256 59" fill="none" xmlns="http://www.w3.org/2000/svg">
<mask id="path-1-inside-1_1135_11276" fill="white">
<path fill-rule="evenodd" clip-rule="evenodd" d="M129.569 0.986336C128.769 -0.0271924 127.231 -0.0271943 126.431 0.986334L120.099 9H25C11.1929 9 0 20.1929 0 34C0 47.8071 11.1929 59 25 59H231C244.807 59 256 47.8071 256 34C256 20.1929 244.807 9 231 9H135.901L129.569 0.986336Z"/>
</mask>
<path d="M126.431 0.986334L127.215 1.60626V1.60626L126.431 0.986334ZM129.569 0.986336L130.354 0.36641V0.366407L129.569 0.986336ZM120.099 9V10H120.584L120.884 9.61993L120.099 9ZM135.901 9L135.116 9.61993L135.416 10H135.901V9ZM127.215 1.60626C127.616 1.0995 128.384 1.09949 128.785 1.60626L130.354 0.366407C129.153 -1.15388 126.847 -1.15389 125.646 0.366408L127.215 1.60626ZM120.884 9.61993L127.215 1.60626L125.646 0.366406L119.315 8.38007L120.884 9.61993ZM25 10H120.099V8H25V10ZM1 34C1 20.7452 11.7452 10 25 10V8C10.6406 8 -1 19.6406 -1 34H1ZM25 58C11.7452 58 1 47.2548 1 34H-1C-1 48.3594 10.6406 60 25 60V58ZM231 58H25V60H231V58ZM255 34C255 47.2548 244.255 58 231 58V60C245.359 60 257 48.3594 257 34H255ZM231 10C244.255 10 255 20.7452 255 34H257C257 19.6406 245.359 8 231 8V10ZM135.901 10H231V8H135.901V10ZM128.785 1.60626L135.116 9.61993L136.685 8.38007L130.354 0.36641L128.785 1.60626Z" fill="white" mask="url(#path-1-inside-1_1135_11276)"/>
</svg>
