<svg width="20" height="21" viewBox="0 0 20 21" fill="none" xmlns="http://www.w3.org/2000/svg">
<path d="M4.77749 14.2781L5.35887 14.5688L5.53868 14.2092L5.29718 13.8877L4.77749 14.2781ZM6.22172 15.7224L6.61214 15.2027L6.29067 14.9612L5.93104 15.141L6.22172 15.7224ZM3.33325 17.1666L2.75187 16.8759C2.62675 17.1262 2.6758 17.4284 2.87363 17.6262C3.07147 17.8241 3.3737 17.8731 3.62394 17.748L3.33325 17.1666ZM7.66658 7.05551L7.27658 6.53551C7.11291 6.65826 7.01658 6.85092 7.01658 7.05551H7.66658ZM13.4444 12.8333V13.4833C13.6361 13.4833 13.818 13.3986 13.9416 13.252L13.4444 12.8333ZM8.11541 6.71889L7.72541 6.19889L7.72541 6.19889L8.11541 6.71889ZM9.26539 7.20708L8.62041 7.28771L9.26539 7.20708ZM9.42833 8.51056L10.0733 8.42994L9.42833 8.51056ZM9.22237 9.11083L8.76275 8.65121L8.76275 8.65121L9.22237 9.11083ZM13.7645 12.4531L13.2673 12.0344L13.2673 12.0344L13.7645 12.4531ZM13.3167 11.2733L13.4108 10.6301L13.3167 11.2733ZM11.9976 11.0802L11.9035 11.7234H11.9035L11.9976 11.0802ZM11.3824 11.2842L11.842 11.7438V11.7438L11.3824 11.2842ZM2.68326 9.94439C2.68326 11.716 3.26929 13.3527 4.2578 14.6685L5.29718 13.8877C4.47199 12.7893 3.98326 11.4249 3.98326 9.94439H2.68326ZM10.5555 2.07217C6.20777 2.07217 2.68326 5.59668 2.68326 9.94439H3.98326C3.98326 6.31465 6.92574 3.37217 10.5555 3.37217V2.07217ZM18.4277 9.94439C18.4277 5.59668 14.9032 2.07217 10.5555 2.07217V3.37217C14.1852 3.37217 17.1277 6.31465 17.1277 9.94439H18.4277ZM10.5555 17.8166C14.9032 17.8166 18.4277 14.2921 18.4277 9.94439H17.1277C17.1277 13.5741 14.1852 16.5166 10.5555 16.5166V17.8166ZM5.83131 16.2421C7.14715 17.2306 8.78382 17.8166 10.5555 17.8166V16.5166C9.07501 16.5166 7.71057 16.0279 6.61214 15.2027L5.83131 16.2421ZM3.62394 17.748L6.51241 16.3038L5.93104 15.141L3.04256 16.5852L3.62394 17.748ZM4.19611 13.9874L2.75187 16.8759L3.91463 17.4573L5.35887 14.5688L4.19611 13.9874ZM7.01658 7.05551V7.77773H8.31658V7.05551H7.01658ZM12.7221 13.4833H13.4444V12.1833H12.7221V13.4833ZM7.01658 7.77773C7.01658 10.9288 9.57105 13.4833 12.7221 13.4833V12.1833C10.289 12.1833 8.31658 10.2109 8.31658 7.77773H7.01658ZM8.05658 7.57551L8.50541 7.23889L7.72541 6.19889L7.27658 6.53551L8.05658 7.57551ZM8.62041 7.28771L8.78334 8.59119L10.0733 8.42994L9.91037 7.12646L8.62041 7.28771ZM8.76275 8.65121L7.92919 9.48478L8.84842 10.404L9.68199 9.57045L8.76275 8.65121ZM8.78334 8.59119C8.78611 8.6133 8.77851 8.63545 8.76275 8.65121L9.68199 9.57045C9.98142 9.27102 10.1258 8.85013 10.0733 8.42994L8.78334 8.59119ZM8.50541 7.23889C8.5205 7.22757 8.53155 7.22479 8.53982 7.22393C8.55004 7.22287 8.56316 7.22432 8.57697 7.23018C8.59077 7.23605 8.60093 7.24447 8.60727 7.25257C8.61239 7.25911 8.61807 7.26899 8.62041 7.28771L9.91037 7.12646C9.77969 6.08098 8.56831 5.56671 7.72541 6.19889L8.50541 7.23889ZM13.9416 13.252L14.2617 12.8718L13.2673 12.0344L12.9472 12.4146L13.9416 13.252ZM13.4108 10.6301L12.0918 10.4371L11.9035 11.7234L13.2225 11.9164L13.4108 10.6301ZM10.9227 10.8245L10.0959 11.6514L11.0151 12.5707L11.842 11.7438L10.9227 10.8245ZM12.0918 10.4371C11.6628 10.3743 11.2293 10.518 10.9227 10.8245L11.842 11.7438C11.8581 11.7276 11.8809 11.7201 11.9035 11.7234L12.0918 10.4371ZM14.2617 12.8718C14.9544 12.0493 14.4748 10.7858 13.4108 10.6301L13.2225 11.9164C13.2419 11.9193 13.2517 11.9254 13.2579 11.9306C13.2658 11.9372 13.2741 11.9478 13.2796 11.9623C13.2851 11.9767 13.286 11.9901 13.2844 12.0003C13.2832 12.0084 13.2799 12.0194 13.2673 12.0344L14.2617 12.8718Z" fill="black"/>
</svg>
